<?xml version="1.0" encoding="UTF-8"?>
<svg width="34px" height="40px" viewBox="0 0 34 40" version="1.1" xmlns="http://www.w3.org/2000/svg" xmlns:xlink="http://www.w3.org/1999/xlink">
    <!-- Generator: Sketch 52.5 (67469) - http://www.bohemiancoding.com/sketch -->
    <title>External / OS / Apple</title>
    <desc>Created with Sketch.</desc>
    <g id="External-/-OS-/-Apple" stroke="none" stroke-width="1" fill="none" fill-rule="evenodd">
        <path d="M33.5,29.1933232 C32.0811204,28.7600929 30.806533,27.7492231 29.7002877,26.1607138 C28.5940425,24.5722046 28.0409199,22.7670802 28.0409199,20.7934784 C28.0409199,18.9642858 28.5699938,17.3035706 29.6040916,15.8113355 C30.1812643,14.9689445 31.0951186,14.0302793 32.3456574,12.9712731 C31.5279978,11.9604033 30.6862895,11.1420805 29.8445798,10.5644411 C28.3535542,9.52950308 26.6460876,9 24.7221827,9 C23.54379,9 22.1489591,9.28881973 20.5617373,9.81832282 C18.9745155,10.3718941 17.8201729,10.6366456 17.1227568,10.6366456 C16.5696341,10.6366456 15.4633889,10.3959623 13.8040196,9.91459558 C12.1206031,9.43323032 10.7257722,9.19254697 9.54737948,9.19254697 C6.78176639,9.19254697 4.52117711,10.3478259 2.71751572,12.6583852 C0.913854322,14.9930127 0,17.9774842 0,21.6599376 C0,25.6071425 1.20244141,29.6265521 3.5351753,33.766304 C5.916008,37.9060559 8.29684213,40 10.7738696,40 C11.5674805,40 12.6256283,39.7352485 13.9483132,39.1816772 C15.2469493,38.6521741 16.4012919,38.3874226 17.363245,38.3874226 C18.3492469,38.3874226 19.5757355,38.6281045 20.9946165,39.1576076 C22.4375448,39.6630424 23.54379,39.927794 24.361451,39.927794 C26.4055993,39.927794 28.4737976,38.3633529 30.541996,35.2104026 C31.9368269,33.1164585 32.89878,31.0947203 33.5,29.1933232 L33.5,29.1933232 Z M24.5,0.985184012 C24.5,0.820987378 24.476048,0.680246004 24.476048,0.516049369 C24.4520961,0.375307995 24.4041921,0.211109959 24.3562868,0 C21.5778448,0.633332679 19.5658684,1.78271613 18.3682646,3.47160421 C17.1706593,5.16049369 16.5479054,7.17777784 16.5,9.5 C17.6257494,9.40617195 18.4401205,9.26543198 18.9910185,9.10123394 C19.8532934,8.8197526 20.7155698,8.2567899 21.5778448,7.41234446 C22.5838329,6.42716045 23.3263467,5.34814699 23.8053888,4.17530828 C24.2604789,3.02592483 24.5,1.94691276 24.5,0.985184012 L24.5,0.985184012 Z" id="Apple" fill="#000000"></path>
    </g>
</svg>