<svg width="344" height="64" xmlns="http://www.w3.org/2000/svg"><g id="Slices" fill="none" fill-rule="evenodd"><g id="Draft" transform="translate(176.000000, 8.000000)"><g transform="translate(11.000000, 8.000000)" id="Document-Draft"><g transform="translate(0.000000, 0.500000)"><path d="M25.5 1v29a1 1 0 0 1-1 1h-23a1 1 0 0 1-1-1V1a1 1 0 0 1 1-1h23a1 1 0 0 1 1 1z" id="Fill" fill="#E0FDFE"/><path d="M18.5 23.5l8.293-7.833a1 1 0 0 1 1.394.02L30 17.5 20.997 26H18.5v-2.5z" id="Pencil-Fill" fill="#FFF"/><path d="M25.5 25.526V30a1 1 0 0 1-1 1h-23a1 1 0 0 1-1-1V1a1 1 0 0 1 1-1h23a1 1 0 0 1 1 1v16l-7 6.5V26H21l8.252-7.793a1 1 0 0 0 .02-1.435L28.5 16" id="Outline" stroke="#6E6E6E" fill-opacity="0" fill="#E0FDFE" stroke-linecap="round" stroke-linejoin="round"/><g id="Draft-Contents" transform="translate(5.000000, 4.000000)" stroke="#6E6E6E" stroke-linecap="round" stroke-linejoin="round"><path d="M.5 10h7" id="Bottom-Line"/><path d="M.5 7h15" id="Middle-Line"/><path d="M.5 4h15" id="Top-Line"/><path d="M.5 1h3" id="First-Line"/></g></g></g></g><g id="DraftCategory" transform="translate(232.000000, 8.000000)"><g transform="translate(8.000000, 8.000000)"><g id="Bottom-Document" transform="translate(9.000000, 3.000000)" fill="#E0FDFE"><path d="M22.5 1.5v26a1 1 0 0 1-1 1h-20a1 1 0 0 1-1-1v-26a1 1 0 0 1 1-1h20a1 1 0 0 1 1 1z" id="Fill"/><path d="M1.5.5h20a1 1 0 0 1 1 1v26a1 1 0 0 1-1 1H1.334" id="Outline" stroke="#6E6E6E" fill-opacity="0" stroke-linecap="round" stroke-linejoin="round"/></g><g id="Top-Document"><path d="M22.676.922l2.229 25.47a1 1 0 0 1-.91 1.083L3.843 29.238a1 1 0 0 1-1.084-.909L.53 2.86a1 1 0 0 1 .91-1.083L21.592.013a1 1 0 0 1 1.083.91z" id="Fill" fill="#E0FDFE"/><path d="M17.601 21.173l7.297-6.891a1 1 0 0 1 1.394.02l1.536 1.536-8.006 7.558h-2.22v-2.223z" id="Pencil-Fill" fill="#FFF"/><path d="M24.568 22.539l.337 3.853a1 1 0 0 1-.91 1.083L3.843 29.238a1 1 0 0 1-1.084-.909L.53 2.86a1 1 0 0 1 .91-1.083L21.592.013a1 1 0 0 1 1.083.91l1.23 14.063-6.302 6.154v2.223h2.218l7.257-6.852a1 1 0 0 0 .041-1.413l-.626-.627" id="Outline" stroke="#6E6E6E" fill-opacity="0" fill="#E0FDFE" stroke-linecap="round" stroke-linejoin="round"/><path d="M5.95 13.9l6.2-.55" id="Bottom-Line" stroke="#6E6E6E" stroke-linecap="round" stroke-linejoin="round"/><path d="M5.7 11.2L19 10.05" id="Middle-Line" stroke="#6E6E6E" stroke-linecap="round" stroke-linejoin="round"/><path d="M5.5 8.55L18.8 7.4" id="Top-Line" stroke="#6E6E6E" stroke-linecap="round" stroke-linejoin="round"/><path d="M5.3 5.9l2.6-.23" id="First-Line" stroke="#6E6E6E" stroke-linecap="round" stroke-linejoin="round"/></g></g></g><g id="DraftNew" transform="translate(288.000000, 8.000000)"><g transform="translate(11.000000, 8.000000)"><path d="M25.5 1.5v29a1 1 0 0 1-1 1h-23a1 1 0 0 1-1-1v-29a1 1 0 0 1 1-1h23a1 1 0 0 1 1 1z" id="Colour-Fill" fill="#E0FDFE"/><path d="M18.5 24l8.293-7.833a1 1 0 0 1 1.394.02L30 18l-9.003 8.5H18.5V24z" id="Pencil-Fill" fill="#FFF"/><path d="M25.5 26.026V30.5a1 1 0 0 1-1 1h-23a1 1 0 0 1-1-1v-29a1 1 0 0 1 1-1h23a1 1 0 0 1 1 1v16l-7 6.5v2.5H21l8.252-7.793a1 1 0 0 0 .02-1.435L28.5 16.5" id="Outline" stroke="#6E6E6E" fill-opacity="0" fill="#E0FDFE" stroke-linecap="round" stroke-linejoin="round"/></g></g><g id="Survey" transform="translate(120.000000, 8.000000)"><g transform="translate(11.000000, 8.500000)"><path d="M21.048 0l4.07 3.2a1 1 0 0 1 .382.786V30a1 1 0 0 1-1 1h-23a1 1 0 0 1-1-1V1a1 1 0 0 1 1-1h16.382" id="Fill" fill="#E0FDFE"/><path d="M23.5 5h-2a1 1 0 0 1-1-1V.54a.5.5 0 0 1 .812-.39l3.813 3.05a1 1 0 0 1 .375.78V30a1 1 0 0 1-1 1h-23a1 1 0 0 1-1-1V1a1 1 0 0 1 1-1h16" id="Outline" stroke="#6E6E6E" fill-opacity="0" fill="#E0FDFE" stroke-linecap="round" stroke-linejoin="round"/><g id="Survey-Contents" transform="translate(5.000000, 5.500000)"><g id="Bottom-Checkbox" transform="translate(0.000000, 12.500000)"><g id="Lines" transform="translate(10.000000, 0.500000)" stroke="#6E6E6E" stroke-linecap="round" stroke-linejoin="round"><path d="M.5 7.5h5" id="Bottom-Line"/><path d="M.5 4.5h5" id="Middle-Line"/><path d="M.5 1.5h5" id="Top-Line"/></g><circle id="Fill" fill="#FFF" cx="3.75" cy="4.75" r="3.75"/><path d="M3.75 8.5A3.75 3.75 0 1 0 .438 6.51" id="Outline" stroke="#6E6E6E" fill-opacity="0" fill="#FFF" stroke-linecap="round" stroke-linejoin="round" transform="translate(3.750000, 4.750000) rotate(-270.000000) translate(-3.750000, -4.750000)"/><path id="Check" stroke="#6E6E6E" fill-opacity="0" fill="#FFF" stroke-linecap="round" stroke-linejoin="round" d="M2.286 4.83l.942.956 1.666-2.06"/></g><g id="Top-Checkbox" transform="translate(0.000000, 0.500000)"><g id="Lines" transform="translate(10.000000, 0.500000)" stroke="#6E6E6E" stroke-linecap="round" stroke-linejoin="round"><path d="M.5 7.5h5" id="Bottom-Line"/><path d="M.5 4.5h5" id="Middle-Line"/><path d="M.5 1.5h2" id="Top-Line"/></g><circle id="Fill" fill="#FFF" cx="3.75" cy="4.75" r="3.75"/><path d="M3.75 8.5A3.75 3.75 0 1 0 .438 6.51" id="Outline" stroke="#6E6E6E" fill-opacity="0" fill="#FFF" stroke-linecap="round" stroke-linejoin="round" transform="translate(3.750000, 4.750000) rotate(-270.000000) translate(-3.750000, -4.750000)"/><path id="Check" stroke="#6E6E6E" fill-opacity="0" fill="#FFF" stroke-linecap="round" stroke-linejoin="round" d="M2.286 4.83l.942.956 1.666-2.06"/></g></g></g></g><g id="Report" transform="translate(64.000000, 8.000000)"><g transform="translate(11.000000, 8.500000)"><path d="M21.048 0l4.07 3.2a1 1 0 0 1 .382.786V30a1 1 0 0 1-1 1h-23a1 1 0 0 1-1-1V1a1 1 0 0 1 1-1h16.382" id="Fill" fill="#E0FDFE"/><path d="M23.5 5h-2a1 1 0 0 1-1-1V.54a.5.5 0 0 1 .812-.39l3.813 3.05a1 1 0 0 1 .375.78V30a1 1 0 0 1-1 1h-23a1 1 0 0 1-1-1V1a1 1 0 0 1 1-1h16" id="Outline" stroke="#6E6E6E" fill-opacity="0" fill="#E0FDFE" stroke-linecap="round" stroke-linejoin="round"/><g id="Report-Contents" transform="translate(5.000000, 4.500000)"><g id="Bottom-Line" transform="translate(0.000000, 20.000000)" stroke="#6E6E6E" stroke-linecap="round" stroke-linejoin="round"><path d="M7.5 1.5h8" id="Right-Line"/><path d="M.5 1.5h4" id="Left-Line"/></g><g id="Middle-Line" transform="translate(0.000000, 17.000000)" stroke="#6E6E6E" stroke-linecap="round" stroke-linejoin="round"><path d="M7.5 1.5h8" id="Right-Line"/><path d="M.5 1.5h4" id="Left-Line"/></g><g id="Top-Line" transform="translate(0.000000, 14.000000)" stroke="#6E6E6E" stroke-linecap="round" stroke-linejoin="round"><path d="M7.5 1.5h8" id="Right-Line"/><path d="M.5 1.5h4" id="Left-Line"/></g><g id="Graph" fill="#FFF"><path d="M14.75 3.5a.75.75 0 0 1 .75.75v7.25l-15 .019V.5H13a1 1 0 0 1 1 1v1.25c0 .414.336.75.75.75z" id="Fill"/><path d="M.5.5v10a1 1 0 0 0 1 1h14.001" id="Axis" stroke="#6E6E6E" fill-opacity="0" stroke-linecap="round" stroke-linejoin="round"/><path d="M3 8.5l2.193-3.07a.5.5 0 0 1 .72-.1l1.691 1.353a.5.5 0 0 0 .707-.083L11.5 2.5" id="Data" stroke="#6E6E6E" fill-opacity="0" stroke-linecap="round" stroke-linejoin="round"/></g></g></g></g><g id="Template" transform="translate(8.000000, 8.000000)"><g transform="translate(11.000000, 9.000000)"><path d="M21.048 0l4.07 3.2a1 1 0 0 1 .382.786V30a1 1 0 0 1-1 1h-23a1 1 0 0 1-1-1V1a1 1 0 0 1 1-1h16.382" id="Fill" fill="#E0FDFE"/><path d="M23.5 5h-2a1 1 0 0 1-1-1V.54a.5.5 0 0 1 .812-.39l3.813 3.05a1 1 0 0 1 .375.78V30a1 1 0 0 1-1 1h-23a1 1 0 0 1-1-1V1a1 1 0 0 1 1-1h16" id="Outline" stroke="#6E6E6E" fill-opacity="0" fill="#E0FDFE" stroke-linecap="round" stroke-linejoin="round"/><g id="Template-Contents" transform="translate(5.000000, 4.000000)"><g id="Right-Square" transform="translate(9.000000, 16.000000)" fill="#FFF"><path d="M1 0h5a.5.5 0 0 1 .5.5v5A.5.5 0 0 1 6 6H1a.5.5 0 0 1-.5-.5v-5A.5.5 0 0 1 1 0z" id="Fill"/><path id="Outline" stroke="#6E6E6E" fill-opacity="0" stroke-linecap="round" stroke-linejoin="round" d="M2.5 0h4v6h-6V2"/></g><g id="Left-Square" transform="translate(0.000000, 16.000000)" fill="#FFF"><path d="M1 0h5a.5.5 0 0 1 .5.5v5A.5.5 0 0 1 6 6H1a.5.5 0 0 1-.5-.5v-5A.5.5 0 0 1 1 0z" id="Fill"/><path id="Outline" stroke="#6E6E6E" fill-opacity="0" stroke-linecap="round" stroke-linejoin="round" d="M2.5 0h4v6h-6V2"/></g><g id="Top-Rectangle" transform="translate(0.000000, 6.000000)" fill="#FFF"><path d="M1 0h14a.5.5 0 0 1 .5.5v5a.5.5 0 0 1-.5.5H1a.5.5 0 0 1-.5-.5v-5A.5.5 0 0 1 1 0z" id="Fill"/><path id="Outline" stroke="#6E6E6E" fill-opacity="0" stroke-linecap="round" stroke-linejoin="round" d="M2.5 0h13v6H.5V2"/></g><path d="M.5 1h3" id="Line" stroke="#6E6E6E" stroke-linecap="round" stroke-linejoin="round"/></g></g></g></g></svg>