<svg width="644" height="352" viewBox="0 0 644 352" xmlns="http://www.w3.org/2000/svg"><title>payment-sprite</title><g id="Payment-badge-set" fill="none" fill-rule="evenodd"><g id="visa-light" transform="translate(536 284)"><rect id="Rectangle" fill="#FFF" width="100" height="60" rx="4"/><path id="Fill-1" fill="#26337A" d="M41.49 39.547l3.075-19.074h4.915l-3.075 19.074H41.49"/><path d="M64.233 20.94c-.972-.382-2.5-.8-4.404-.8-4.86 0-8.28 2.59-8.31 6.295-.03 2.742 2.442 4.27 4.305 5.182 1.915.935 2.56 1.532 2.55 2.368-.012 1.277-1.528 1.862-2.94 1.862-1.968 0-3.014-.288-4.63-1l-.632-.304-.688 4.27c1.146.53 3.27.992 5.476 1.017 5.165 0 8.52-2.558 8.56-6.516.018-2.174-1.292-3.822-4.128-5.182-1.718-.885-2.772-1.47-2.76-2.366 0-.792.89-1.64 2.816-1.64 1.607-.027 2.77.344 3.678.732l.44.218.667-4.135" id="Fill-2" fill="#26337A"/><path d="M70.777 32.784c.408-1.096 1.958-5.33 1.958-5.33-.028.05.405-1.106.653-1.82l.332 1.644s.943 4.553 1.138 5.506h-4.08zm6.064-12.292h-3.798c-1.178 0-2.06.338-2.576 1.58l-7.3 17.482h5.164s.842-2.352 1.033-2.868c.563 0 5.58.01 6.295.01.147.665.6 2.858.6 2.858h4.56L76.84 20.492z" id="Fill-3" fill="#26337A"/><path d="M37.367 20.49l-4.81 13.003-.516-2.644c-.896-3.046-3.686-6.347-6.807-8.002l4.4 16.682 5.202-.003 7.74-19.038h-5.208" id="Fill-4" fill="#26337A"/><path d="M28.09 20.476h-7.925l-.065.395c6.167 1.58 10.247 5.395 11.94 9.98l-1.72-8.765c-.3-1.21-1.162-1.567-2.23-1.61" id="Fill-5" fill="#ED982D"/></g><g id="stripe-light" transform="translate(404 284)"><rect id="Rectangle" fill="#FFF" width="100" height="60" rx="4"/><path d="M25.496 28.7c-1.335-.498-2.067-.885-2.067-1.494 0-.516.42-.81 1.17-.81 1.372 0 2.78.534 3.75 1.013l.548-3.412c-.768-.37-2.34-.977-4.518-.977-1.536 0-2.816.406-3.73 1.162-.952.793-1.445 1.936-1.445 3.32 0 2.507 1.518 3.577 3.987 4.48 1.59.572 2.12.978 2.12 1.605 0 .608-.51.958-1.444.958-1.152 0-3.054-.57-4.298-1.31l-.548 3.45c1.06.608 3.036 1.235 5.084 1.235 1.628 0 2.98-.387 3.896-1.125 1.024-.81 1.554-2.01 1.554-3.56 0-2.562-1.554-3.63-4.06-4.535zm12.992-2.01l.55-3.393H36.14v-4.12l-3.894.648-.563 3.472-1.37.224-.512 3.17h1.878v6.657c0 1.733.44 2.932 1.335 3.67.75.608 1.83.903 3.347.903 1.17 0 1.884-.203 2.377-.332v-3.596c-.274.074-.896.203-1.316.203-.896 0-1.28-.46-1.28-1.512V26.69h2.348zm8.7-3.59c-1.28 0-2.306.677-2.708 1.894l-.274-1.697h-3.97v14.346h4.537V28.33c.567-.7 1.37-.953 2.47-.953.237 0 .493 0 .804.055V23.21c-.31-.074-.586-.11-.86-.11zm4.242-1.223c1.317 0 2.378-1.088 2.378-2.415 0-1.346-1.06-2.416-2.378-2.416-1.335 0-2.396 1.07-2.396 2.416 0 1.327 1.06 2.415 2.396 2.415zm-2.286 1.42h4.554v14.346h-4.554V23.297zm17.46 1.29c-.806-1.05-1.92-1.566-3.348-1.566-1.317 0-2.47.554-3.548 1.715l-.238-1.438h-3.987v19.657l4.536-.756v-4.61c.694.22 1.407.332 2.047.332 1.134 0 2.78-.295 4.06-1.697 1.226-1.346 1.848-3.43 1.848-6.177 0-2.434-.458-4.278-1.372-5.458zm-3.77 8.852c-.364.7-.93 1.07-1.59 1.07-.457 0-.86-.094-1.225-.278V27.41c.767-.812 1.462-.904 1.718-.904 1.152 0 1.72 1.254 1.72 3.706 0 1.4-.202 2.49-.623 3.227zm18.144-3.1c0-2.285-.494-4.093-1.463-5.365-.988-1.29-2.47-1.954-4.353-1.954-3.86 0-6.255 2.877-6.255 7.487 0 2.582.64 4.518 1.902 5.753 1.133 1.107 2.76 1.66 4.864 1.66 1.94 0 3.73-.46 4.865-1.217l-.494-3.135c-1.116.61-2.415.94-3.878.94-.878 0-1.48-.184-1.92-.57-.476-.407-.75-1.07-.84-2.01h7.515c.02-.222.055-1.255.055-1.587zm-7.608-1.216c.128-2.047.677-3.006 1.72-3.006 1.023 0 1.554.978 1.627 3.006H73.37z" id="Fill-1" fill="#1A1919"/></g><g id="square-light" transform="translate(272 284)"><rect id="Rectangle" fill="#FFF" width="100" height="60" rx="4"/><path d="M34.323 27.272c0 .917.262 1.62.8 2.147.503.492 1.26.844 2.384 1.11 2.76.647 3.328 1.473 3.33 2.513 0 1.387-1.294 2.515-2.885 2.515h-.01c-.825 0-1.615-.318-2.165-.874-.466-.47-.72-1.075-.72-1.702h-1.142c0 .936.377 1.83 1.057 2.52.763.77 1.844 1.21 2.97 1.21h.01c1.067 0 2.07-.372 2.826-1.05.773-.695 1.198-1.625 1.198-2.62-.005-2.337-2.132-3.15-4.212-3.64-1.946-.456-2.303-1.075-2.303-2.13 0-1.153 1.113-2.13 2.43-2.13 1.346 0 2.438.95 2.438 2.116h1.142c0-.894-.383-1.727-1.077-2.344-.672-.598-1.56-.926-2.503-.926-1.966 0-3.567 1.473-3.567 3.284" id="Fill-1" fill="#525655"/><path d="M44.455 32.128c0-2.06 1.478-3.61 3.525-3.61 1.954 0 3.448 1.645 3.448 3.593 0 1.95-1.494 3.563-3.448 3.563-2.015 0-3.525-1.5-3.525-3.545m-1.104-.048c0 2.634 2.05 4.598 4.63 4.598 1.34 0 2.613-.59 3.354-1.74h.032V40h1.1V27.736h-1.1v1.533h-.032c-.74-1.166-2.014-1.757-3.354-1.757-2.532 0-4.63 1.948-4.63 4.567" id="Fill-2" fill="#525655"/><path d="M64.756 32.128c0-2.06 1.48-3.61 3.526-3.61 1.952 0 3.446 1.645 3.446 3.593 0 1.95-1.494 3.563-3.446 3.563-2.016 0-3.526-1.5-3.526-3.545m-1.103-.048c0 2.634 2.047 4.598 4.63 4.598 1.338 0 2.596-.59 3.35-1.74h.034v1.533h1.1v-8.734h-1.1v1.533h-.033c-.74-1.182-1.998-1.757-3.352-1.757-2.534 0-4.63 1.948-4.63 4.567" id="Fill-3" fill="#525655"/><path d="M76.1 28.998h-.03v-1.262H74.97v8.735h1.103v-5.11c0-1.564.945-2.538 2.456-2.666v-1.18c-1.12.08-1.953.365-2.426 1.484" id="Fill-4" fill="#525655"/><path d="M83.46 28.52c1.73 0 3.083 1.276 3.367 2.985h-6.722c.27-1.71 1.637-2.986 3.354-2.986m-4.488 3.59c0 2.507 2 4.568 4.487 4.568 1.904 0 3.603-1.244 4.233-3.066h-1.165c-.472 1.294-1.763 2.06-3.085 2.06-1.685 0-3.26-1.437-3.338-3.162h7.84c0-.11.016-.207.016-.318 0-2.524-1.998-4.68-4.517-4.68-2.472 0-4.47 2.108-4.47 4.6" id="Fill-5" fill="#525655"/><path d="M60.954 27.707v4.636c0 1.027-.14 1.893-.9 2.632-.54.513-1.108.705-1.835.705-1.978 0-2.627-1.33-2.627-3.144v-4.83h-1.107v4.846c0 .98.143 2.037.76 2.823.71.914 1.85 1.316 2.973 1.316 1.14 0 2.26-.496 2.767-1.572h.03v1.363h1.045v-8.773h-1.108" id="Fill-6" fill="#525655"/><path d="M19.765 27.277c-.33 0-.597.272-.597.606v4.24c0 .333.268.606.597.606h4.182c.328 0 .597-.274.597-.607v-4.24c0-.334-.27-.606-.597-.606h-4.182zm-4.18 8.027V24.7c0-.582.47-1.058 1.044-1.058h10.453c.575 0 1.045.476 1.045 1.06v10.602c0 .583-.47 1.06-1.045 1.06H16.63c-.575 0-1.046-.477-1.046-1.06zm-.3-15.3c-1.807 0-3.285 1.5-3.285 3.334v13.33C12 38.5 13.478 40 15.286 40h13.14c1.808 0 3.286-1.5 3.286-3.333v-13.33c0-1.832-1.478-3.332-3.285-3.332h-13.14z" id="Fill-8" fill="#525655"/></g><g id="paypal-light" transform="translate(140 284)"><rect id="Rectangle" fill="#FFF" transform="matrix(1 0 0 -1 0 61.694)" x=".188" y=".847" width="100" height="60" rx="4"/><path d="M78.692 21.886l-2.02 12.857c-.04.25.153.474.404.474h2.032c.338 0 .624-.245.676-.578l1.993-12.627c.04-.25-.153-.474-.405-.474h-2.275c-.2 0-.374.146-.405.346zM75.912 26.094h-2.356c-.202 0-.374.147-.405.346l-.103.66-.166-.24c-.51-.74-1.647-.988-2.783-.988-2.606 0-4.83 1.974-5.264 4.742-.225 1.38.094 2.702.878 3.622.72.847 1.748 1.2 2.97 1.2 2.1 0 3.265-1.35 3.265-1.35l-.106.655c-.04.252.153.476.406.476h2.123c.335 0 .622-.244.674-.578l1.275-8.07c.038-.25-.155-.474-.408-.474zm-3.286 4.59c-.226 1.346-1.297 2.25-2.66 2.25-.684 0-1.233-.22-1.584-.635-.348-.414-.48-1.003-.37-1.658.214-1.335 1.3-2.27 2.642-2.27.67 0 1.214.223 1.573.643.36.424.503 1.016.4 1.668zM61.194 21.54H56.27c-.337 0-.623.244-.676.577l-1.99 12.626c-.04.25.152.474.403.474h2.527c.235 0 .436-.17.473-.405l.565-3.58c.052-.332.34-.577.675-.577h1.558c3.245 0 5.116-1.57 5.606-4.68.222-1.36.01-2.43-.628-3.18-.7-.82-1.94-1.256-3.588-1.256zm.568 4.61c-.268 1.768-1.618 1.768-2.924 1.768h-.743l.522-3.3c.03-.2.203-.346.405-.346h.34c.89 0 1.73 0 2.162.507.258.3.337.75.238 1.37z" id="Shape" fill="#179BD7"/><path d="M53.35 26.094h-2.37c-.226 0-.44.112-.567.3l-3.268 4.814-1.385-4.626c-.088-.29-.355-.488-.657-.488h-2.33c-.28 0-.478.276-.388.543l2.61 7.66-2.454 3.463c-.192.273.003.648.336.648h2.367c.224 0 .435-.11.562-.294l7.88-11.376c.19-.272-.004-.644-.336-.644zM40.79 26.094h-2.357c-.2 0-.375.147-.405.346l-.105.66-.165-.24c-.51-.74-1.65-.988-2.785-.988-2.605 0-4.83 1.974-5.264 4.742-.227 1.38.094 2.702.877 3.622.72.847 1.747 1.2 2.97 1.2 2.1 0 3.264-1.35 3.264-1.35l-.104.655c-.04.252.153.476.404.476h2.124c.338 0 .623-.244.676-.578l1.275-8.07c.04-.25-.152-.474-.404-.474zm-3.286 4.59c-.227 1.346-1.297 2.25-2.66 2.25-.685 0-1.232-.22-1.584-.635-.348-.414-.48-1.003-.37-1.658.213-1.335 1.3-2.27 2.643-2.27.67 0 1.214.223 1.572.643.36.424.502 1.016.4 1.668zM26.072 21.54h-4.924c-.337 0-.624.244-.676.577L18.48 34.743c-.04.25.154.474.406.474h2.35c.338 0 .625-.245.677-.578l.537-3.407c.052-.333.34-.578.676-.578h1.558c3.244 0 5.116-1.57 5.605-4.68.22-1.36.008-2.43-.63-3.18-.7-.82-1.94-1.256-3.588-1.256zm.568 4.61c-.27 1.768-1.62 1.768-2.925 1.768h-.743l.522-3.3c.03-.2.203-.346.405-.346h.34c.89 0 1.728 0 2.16.507.26.3.34.75.24 1.37z" id="Shape" fill="#253B80"/></g><g id="mastercard-light" transform="translate(8 284)"><rect id="Rectangle" fill="#FFF" width="100" height="60" rx="4"/><path d="M56.13 30.485C56.13 41.265 47.39 50 36.613 50 25.836 50 17.1 41.264 17.1 30.485c-.002-10.778 8.736-19.515 19.514-19.515 10.778 0 19.515 8.737 19.515 19.515" id="Fill-333" fill="#C00"/><path d="M62.814 10.97c-5.043 0-9.637 1.913-13.1 5.05-.706.64-1.364 1.332-1.97 2.067h3.942c.538.656 1.034 1.345 1.488 2.067h-6.92c-.413.664-.79 1.353-1.124 2.067h9.167c.314.67.59 1.36.827 2.067h-10.82c-.225.673-.415 1.363-.567 2.066H55.69c.286 1.332.44 2.714.44 4.132 0 2.167-.354 4.252-1.006 6.2h-10.82c.237.707.513 1.397.826 2.067h9.167c-.335.712-.71 1.402-1.125 2.067h-6.917c.45.718.948 1.41 1.488 2.063h3.942c-.606.737-1.265 1.427-1.972 2.067 3.464 3.138 8.058 5.05 13.1 5.05 10.78 0 19.516-8.736 19.516-19.515 0-10.777-8.738-19.515-19.516-19.515" id="Fill-334" fill="#F90"/><path d="M32.057 32.622c-.223-.025-.32-.033-.473-.033-1.2 0-1.808.41-1.808 1.225 0 .5.296.82.76.82.862 0 1.484-.822 1.52-2.013zm1.54 3.587h-1.755l.04-.835c-.535.66-1.25.973-2.22.973-1.148 0-1.935-.896-1.935-2.2 0-1.96 1.37-3.102 3.72-3.102.24 0 .548.022.863.062.065-.266.082-.38.082-.522 0-.533-.37-.733-1.358-.733-1.037-.01-1.892.248-2.243.363.023-.134.295-1.81.295-1.81 1.055-.31 1.752-.427 2.535-.427 1.82 0 2.784.816 2.782 2.36.003.414-.066.923-.172 1.595-.184 1.165-.578 3.666-.632 4.274z" id="Fill-336" fill="#006"/><path id="Fill-337" fill="#006" d="M26.84 36.21h-2.12l1.215-7.61-2.71 7.61H21.78l-.177-7.567-1.276 7.566h-1.983L20 26.31h3.047l.184 5.54 1.86-5.54h3.388l-1.638 9.9"/><path d="M65.432 32.622c-.223-.025-.32-.033-.472-.033-1.202 0-1.808.41-1.808 1.225 0 .5.295.82.76.82.86 0 1.484-.822 1.52-2.013zm1.542 3.587h-1.756l.04-.835c-.535.66-1.25.973-2.22.973-1.15 0-1.935-.896-1.935-2.2 0-1.96 1.37-3.102 3.72-3.102.24 0 .547.022.862.062.066-.266.083-.38.083-.522 0-.533-.37-.733-1.36-.733-1.035-.01-1.89.248-2.242.363.023-.134.296-1.81.296-1.81 1.054-.31 1.75-.427 2.534-.427 1.82 0 2.783.816 2.78 2.36.005.414-.063.923-.17 1.595-.183 1.165-.58 3.666-.632 4.274z" id="Fill-338" fill="#006"/><path d="M43.013 36.087c-.58.182-1.032.26-1.522.26-1.082 0-1.673-.62-1.673-1.768-.015-.356.156-1.292.29-2.146.123-.752.92-5.494.92-5.494h2.105l-.246 1.22h1.272l-.287 1.934h-1.275c-.245 1.53-.594 3.437-.598 3.69 0 .415.222.597.726.597.24 0 .428-.024.57-.075l-.28 1.782" id="Fill-339" fill="#006"/><path d="M49.47 36.02c-.724.223-1.42.33-2.16.328-2.358-.003-3.587-1.234-3.587-3.59 0-2.753 1.563-4.78 3.686-4.78 1.735 0 2.844 1.135 2.844 2.914 0 .59-.076 1.167-.26 1.98H45.8c-.14 1.168.606 1.654 1.832 1.654.752 0 1.433-.155 2.19-.506l-.352 2zm-1.184-4.77c.012-.17.223-1.438-.98-1.438-.67 0-1.15.51-1.345 1.437h2.326z" id="Fill-340" fill="#006"/><path d="M34.868 30.704c0 1.017.494 1.72 1.613 2.247.86.405.993.524.993.89 0 .5-.38.73-1.217.73-.633 0-1.22-.1-1.9-.32l-.29 1.86c.482.104.91.2 2.205.238 2.236 0 3.27-.85 3.27-2.69 0-1.107-.433-1.756-1.494-2.244-.888-.408-.99-.5-.99-.875 0-.436.352-.658 1.036-.658.416 0 .984.044 1.522.12l.302-1.867c-.55-.087-1.38-.156-1.865-.156-2.37 0-3.19 1.237-3.182 2.724" id="Fill-341" fill="#006"/><path d="M59.774 28.192c.588 0 1.138.152 1.893.534l.347-2.148c-.31-.122-1.403-.838-2.33-.838-1.416 0-2.616.704-3.458 1.864-1.23-.407-1.736.416-2.355 1.236l-.55.128c.042-.27.08-.537.068-.81H51.44c-.264 2.493-.735 5.016-1.103 7.51l-.097.54h2.12c.353-2.298.547-3.77.665-4.766l.798-.442c.12-.445.492-.594 1.24-.576-.097.525-.15 1.078-.15 1.65 0 2.634 1.423 4.274 3.703 4.274.587 0 1.092-.077 1.873-.29l.37-2.255c-.702.345-1.278.507-1.8.507-1.23 0-1.976-.91-1.976-2.412 0-2.18 1.108-3.706 2.69-3.706" id="Fill-342" fill="#006"/><path d="M77.71 26.31l-.47 2.86c-.578-.762-1.2-1.314-2.022-1.314-1.07 0-2.042.81-2.68 2.004-.886-.184-1.803-.497-1.803-.497v.008c.07-.667.1-1.072.093-1.21H68.88c-.263 2.49-.735 5.014-1.103 7.507l-.097.542h2.12c.286-1.86.505-3.403.666-4.626.725-.655 1.088-1.225 1.818-1.188-.324.784-.513 1.686-.513 2.612 0 2.012 1.018 3.34 2.56 3.34.775 0 1.37-.268 1.952-.888l-.1.748h2.005L79.8 26.31h-2.09zm-2.648 8.04c-.72 0-1.087-.535-1.087-1.588 0-1.582.683-2.704 1.644-2.704.727 0 1.12.554 1.12 1.577 0 1.596-.692 2.714-1.678 2.714z" id="Fill-343" fill="#006"/><path id="Fill-344" fill="#FFF" d="M27.45 35.62h-2.12l1.215-7.607-2.71 7.608H22.39l-.177-7.563-1.276 7.564h-1.983l1.656-9.896h3.047l.085 6.127 2.056-6.126h3.29l-1.64 9.897"/><path d="M32.667 32.036c-.223-.026-.32-.033-.473-.033-1.2 0-1.81.41-1.81 1.224 0 .5.298.82.76.82.864 0 1.486-.82 1.523-2.01zm1.54 3.585h-1.755l.04-.832c-.535.658-1.25.973-2.22.973-1.148 0-1.935-.896-1.935-2.198 0-1.96 1.37-3.103 3.72-3.103.24 0 .547.02.863.062.065-.267.082-.38.082-.524 0-.532-.368-.73-1.358-.73-1.037-.013-1.892.245-2.243.36.023-.133.295-1.81.295-1.81 1.055-.31 1.752-.426 2.535-.426 1.82 0 2.783.817 2.782 2.36.003.414-.065.926-.172 1.595-.184 1.165-.58 3.667-.633 4.274z" id="Fill-345" fill="#FFF"/><path d="M62.624 25.99l-.347 2.148c-.757-.38-1.305-.534-1.893-.534-1.582 0-2.69 1.53-2.69 3.71 0 1.5.745 2.41 1.976 2.41.522 0 1.098-.162 1.8-.51l-.373 2.257c-.78.213-1.285.29-1.872.29-2.28 0-3.702-1.64-3.702-4.272 0-3.54 1.964-6.012 4.772-6.012.925 0 2.018.392 2.33.514" id="Fill-346" fill="#FFF"/><path d="M66.04 32.036c-.22-.026-.318-.033-.47-.033-1.2 0-1.808.41-1.808 1.224 0 .5.296.82.758.82.863 0 1.486-.82 1.52-2.01zm1.543 3.585h-1.755l.04-.832c-.536.658-1.25.973-2.22.973-1.15 0-1.935-.896-1.935-2.198 0-1.96 1.368-3.103 3.72-3.103.24 0 .546.02.86.062.067-.267.084-.38.084-.524 0-.532-.368-.73-1.358-.73-1.037-.013-1.89.245-2.243.36l.294-1.81c1.056-.31 1.752-.426 2.536-.426 1.82 0 2.783.817 2.78 2.36.005.414-.064.926-.17 1.595-.184 1.165-.58 3.667-.633 4.274z" id="Fill-347" fill="#FFF"/><path d="M43.623 35.5c-.58.182-1.032.26-1.522.26-1.082 0-1.674-.62-1.674-1.767-.014-.357.157-1.29.292-2.146.12-.753.918-5.493.918-5.493h2.106l-.246 1.218h1.08l-.287 1.934h-1.086c-.244 1.532-.593 3.438-.597 3.69 0 .417.222.598.726.598.24 0 .428-.024.57-.077l-.28 1.782" id="Fill-348" fill="#FFF"/><path d="M50.08 35.436c-.723.22-1.422.326-2.16.325-2.36 0-3.587-1.232-3.587-3.59 0-2.752 1.563-4.778 3.684-4.778 1.738 0 2.847 1.134 2.847 2.914 0 .59-.077 1.166-.26 1.98H46.41c-.142 1.167.606 1.654 1.83 1.654.754 0 1.434-.156 2.19-.507l-.35 2.003zm-1.183-4.774c.01-.17.223-1.437-.98-1.437-.67 0-1.15.512-1.346 1.437h2.327z" id="Fill-349" fill="#FFF"/><path d="M35.478 30.117c0 1.02.494 1.72 1.614 2.248.857.403.99.523.99.888 0 .502-.378.728-1.217.728-.632 0-1.22-.097-1.898-.315l-.29 1.857c.48.106.91.202 2.203.24 2.236 0 3.27-.852 3.27-2.69 0-1.108-.433-1.757-1.495-2.244-.888-.41-.99-.5-.99-.875 0-.435.352-.66 1.037-.66.415 0 .984.047 1.522.123l.302-1.867c-.55-.088-1.38-.158-1.865-.158-2.37 0-3.19 1.237-3.182 2.725" id="Fill-350" fill="#FFF"/><path d="M78.797 35.62h-2.004l.1-.748c-.582.62-1.178.89-1.954.89-1.54 0-2.56-1.328-2.56-3.34 0-2.68 1.58-4.936 3.448-4.936.82 0 1.443.336 2.023 1.098l.47-2.86h2.09l-1.613 9.897zm-3.126-1.858c.988 0 1.68-1.118 1.68-2.713 0-1.024-.394-1.58-1.122-1.58-.96 0-1.643 1.122-1.643 2.705 0 1.054.366 1.587 1.086 1.587z" id="Fill-351" fill="#FFF"/><path d="M69.492 27.572c-.265 2.492-.737 5.015-1.105 7.508l-.097.54h2.12c.757-4.92.94-5.882 2.13-5.762.188-1.007.54-1.89.803-2.334-.887-.186-1.383.316-2.032 1.27.052-.413.146-.813.128-1.222h-1.946" id="Fill-352" fill="#FFF"/><path d="M52.052 27.572c-.266 2.492-.738 5.015-1.106 7.508l-.096.54h2.12c.758-4.92.94-5.882 2.127-5.762.19-1.007.543-1.89.805-2.334-.886-.186-1.383.316-2.03 1.27.05-.413.144-.813.126-1.222h-1.946" id="Fill-353" fill="#FFF"/></g><g id="applepay-light" transform="translate(536 192)"><rect id="Rectangle" fill="#FFF" width="100" height="60" rx="4"/><path d="M32.886 26.958c.037 3.825 3.5 5.097 3.538 5.113-.03.092-.553 1.815-1.824 3.596-1.1 1.54-2.24 3.073-4.035 3.105-1.765.033-2.332-1.002-4.35-1.002s-2.648.97-4.32 1.035c-1.732.063-3.053-1.666-4.16-3.2-2.264-3.137-3.994-8.866-1.67-12.732 1.153-1.92 3.215-3.136 5.453-3.167 1.702-.03 3.31 1.098 4.35 1.098 1.04 0 2.994-1.357 5.047-1.157.86.034 3.27.332 4.82 2.506-.125.074-2.88 1.61-2.85 4.808m-3.316-9.39c.92-1.07 1.54-2.557 1.37-4.036-1.327.05-2.93.847-3.882 1.915-.854.945-1.6 2.458-1.4 3.91 1.48.11 2.99-.72 3.91-1.79" id="path2997" fill="#000"/><path d="M42.892 15.738c.682-.114 1.434-.216 2.257-.307.822-.09 1.727-.135 2.715-.135 1.41 0 2.628.164 3.65.494 1.023.33 1.863.8 2.52 1.414.566.546 1.008 1.193 1.324 1.943.316.75.474 1.615.474 2.592 0 1.18-.217 2.216-.652 3.103-.434.886-1.028 1.63-1.78 2.233-.753.602-1.646 1.05-2.68 1.347-1.036.295-2.164.443-3.387.443-1.105 0-2.033-.08-2.785-.24v9.823h-1.658V15.737zm1.658 11.458c.4.113.846.193 1.34.238.494.045 1.022.068 1.586.068 2.116 0 3.756-.478 4.92-1.432 1.164-.955 1.746-2.353 1.746-4.194 0-.887-.153-1.66-.458-2.32-.306-.66-.74-1.2-1.305-1.62-.565-.42-1.235-.738-2.01-.955-.778-.215-1.636-.323-2.577-.323-.752 0-1.4.03-1.94.086-.54.057-.975.12-1.304.187v10.266z" id="path2995" fill="#000"/><path d="M69.02 34.562c0 .66.01 1.32.034 1.978.024.66.094 1.295.212 1.91h-1.552l-.246-2.32h-.072c-.21.32-.482.637-.81.955-.33.318-.712.608-1.146.87-.435.26-.93.47-1.482.63-.552.158-1.157.24-1.816.24-.822 0-1.546-.133-2.17-.393-.623-.262-1.134-.603-1.534-1.023-.4-.422-.7-.905-.898-1.45-.2-.546-.3-1.09-.3-1.637 0-1.933.84-3.42 2.52-4.468 1.683-1.046 4.216-1.545 7.603-1.5v-.444c0-.43-.042-.926-.124-1.483-.084-.557-.265-1.086-.548-1.585-.282-.5-.705-.92-1.27-1.26-.563-.342-1.328-.513-2.292-.513-.73 0-1.45.107-2.17.323-.716.216-1.368.517-1.955.904l-.53-1.194c.752-.5 1.53-.858 2.327-1.073.8-.216 1.635-.324 2.505-.324 1.175 0 2.134.193 2.874.58.742.386 1.324.886 1.747 1.5.423.613.712 1.3.864 2.063.153.76.23 1.517.23 2.266v6.446zm-1.658-4.877c-.894-.023-1.83.01-2.805.102-.975.09-1.875.29-2.697.597-.824.307-1.505.756-2.045 1.347-.54.593-.812 1.376-.812 2.354 0 1.16.34 2.012 1.023 2.557.682.547 1.445.82 2.292.82.682 0 1.293-.09 1.834-.273.54-.183 1.01-.427 1.41-.733.4-.306.735-.653 1.006-1.04.27-.387.476-.784.618-1.194.117-.455.177-.785.177-.99v-3.545z" id="path2998" fill="#000"/><path d="M72.262 22.08l4.3 10.64c.237.59.46 1.2.672 1.824.212.625.4 1.2.564 1.722h.07c.166-.5.353-1.063.565-1.688.212-.625.447-1.267.705-1.928l4.022-10.57h1.762l-4.9 12.004c-.495 1.272-.96 2.427-1.394 3.46-.435 1.035-.876 1.967-1.323 2.797-.447.83-.9 1.563-1.36 2.2-.456.637-.97 1.194-1.532 1.67-.658.57-1.264.985-1.817 1.246-.552.262-.922.427-1.11.495l-.566-1.33c.424-.18.894-.42 1.41-.715.52-.296 1.025-.682 1.518-1.16.424-.41.888-.948 1.393-1.62.507-.67.96-1.483 1.36-2.438.14-.364.21-.603.21-.716 0-.158-.07-.397-.21-.715L70.496 22.08h1.765z" id="path3000" fill="#000"/></g><g id="androidpay-light" transform="translate(404 192)"><rect id="Rectangle" fill="#FFF" width="100" height="60" rx="4"/><path d="M86 24.062h-2.287l-4.965 11.914h1.014l-4.952-11.9h-2.354l5.615 13.052-.445 1.017c-.5 1.125-1.448 1.613-2.355 1.613h-.744v2.046h.717c2.016 0 3.613-1.084 4.465-3.144L86 24.062zM71.238 37.63V24.075h-2.03v1.546c-1.136-1.138-2.705-1.816-4.492-1.816-3.87 0-6.914 3.145-6.914 7.035 0 3.903 3.045 7.06 6.914 7.06 1.787 0 3.356-.69 4.493-1.816v1.546h2.028zm-6.373-1.708c-2.773 0-5.02-2.277-5.02-5.083 0-2.793 2.247-5.07 5.02-5.07 1.732 0 3.37.813 4.208 2.21.04.08.136.216.136.446v4.812c-.015.244-.096.393-.15.46-.907 1.356-2.463 2.224-4.195 2.224zM45.03 41.696v-5.612c1.136 1.14 2.706 1.83 4.492 1.83 3.856 0 6.914-3.158 6.914-7.048 0-3.904-3.058-7.062-6.914-7.062-1.786 0-3.356.692-4.492 1.817v-1.545H43v17.62h2.03zm4.343-5.76c-1.732 0-3.342-.827-4.208-2.21-.054-.08-.135-.217-.135-.447v-4.867c.013-.23.094-.38.148-.448.907-1.355 2.463-2.182 4.195-2.182 2.76 0 5.006 2.277 5.006 5.083 0 2.792-2.247 5.07-5.007 5.07z" id="Fill-5" fill="#757575"/><path d="M18.375 25.058h-.09V37.13c0 1.008.817 1.832 1.816 1.832h1.568v4.207c0 1.01.813 1.83 1.816 1.83 1.003 0 1.817-.82 1.817-1.83V38.96h2.45v4.207c0 1.01.812 1.83 1.815 1.83 1.004 0 1.817-.82 1.817-1.83V38.96h1.527c.998 0 1.815-.824 1.815-1.83V25.057h-16.35zm3.618-4.35c0 .43.346.78.772.78.427 0 .773-.35.773-.78 0-.43-.346-.777-.773-.777-.426 0-.772.35-.772.78zm7.48 0c0 .43.345.78.77.78.428 0 .773-.35.773-.78 0-.43-.345-.777-.772-.777-.426 0-.772.35-.772.78zm-11.168 3.71c-.003-.084-.005-.168-.005-.252 0-.56.07-1.108.202-1.633.51-2.025 1.948-3.734 3.89-4.75l-1.26-2.343c-.077-.145-.024-.326.12-.404.142-.078.322-.025.4.12l1.275 2.372c1.085-.474 2.305-.74 3.593-.74 1.28 0 2.49.262 3.568.73l1.27-2.362c.078-.145.257-.198.4-.12.144.078.197.26.12.404l-1.255 2.332c2.04 1.056 3.525 2.875 3.975 5.023.05.242.09.49.112.74v.882H18.305zM39 26.567c0-1.01-.814-1.83-1.817-1.83-1.003 0-1.816.82-1.816 1.83v7.693c0 1.012.813 1.832 1.816 1.832 1.003 0 1.817-.82 1.817-1.83v-7.693zm-21.367 0v7.693c0 1.012-.813 1.832-1.816 1.832-1.003 0-1.817-.82-1.817-1.83v-7.693c0-1.012.814-1.83 1.817-1.83 1.003 0 1.816.818 1.816 1.83z" id="Fill-4" fill="#78C257"/></g><g id="amex-light" transform="translate(272 192)"><rect id="Rectangle" fill="#FFF" width="100" height="60" rx="4"/><path d="M84.407 34.666h-3.533c-.352 0-.587.013-.784.146-.205.13-.283.325-.283.582 0 .305.172.512.423.602.205.07.425.092.748.092l1.05.028c1.06.026 1.768.208 2.2.65.078.062.125.132.18.2v-2.3zm0 5.332c-.47.686-1.388 1.034-2.63 1.034h-3.744v-1.734h3.73c.368 0 .627-.05.783-.2.135-.125.23-.307.23-.528 0-.235-.095-.422-.238-.535-.14-.123-.345-.18-.683-.18-1.82-.06-4.09.057-4.09-2.502 0-1.173.747-2.408 2.78-2.408h3.862v-1.61H80.82c-1.083 0-1.87.26-2.427.66v-.66h-5.306c-.85 0-1.845.21-2.316.66v-.66h-9.475v.66c-.754-.54-2.027-.66-2.614-.66h-6.25v.66c-.596-.575-1.923-.66-2.732-.66h-6.995l-1.6 1.728-1.5-1.727h-10.45V42.62h10.253l1.65-1.754 1.553 1.755 6.32.006v-2.654h.62c.84.012 1.828-.02 2.7-.397v3.045h5.214v-2.94h.25c.322 0 .354.012.354.332v2.608h15.835c1.006 0 2.057-.256 2.64-.722v.722h5.022c1.045 0 2.066-.146 2.842-.52v-2.102zm-7.732-3.23c.377.388.58.88.58 1.712 0 1.74-1.09 2.552-3.046 2.552h-3.777v-1.734h3.76c.37 0 .63-.05.793-.2.133-.125.23-.307.23-.528 0-.235-.105-.422-.238-.535-.148-.123-.352-.18-.69-.18-1.813-.06-4.083.057-4.083-2.502 0-1.173.74-2.408 2.77-2.408h3.888v1.72h-3.556c-.353 0-.582.014-.777.147-.212.13-.29.325-.29.582 0 .305.18.513.423.602.204.07.424.092.754.092l1.044.028c1.053.026 1.776.207 2.215.65zm-17.493-.5c-.26.153-.58.166-.957.166H55.87v-1.817h2.387c.345 0 .69.008.925.146.252.13.402.382.402.728 0 .347-.15.626-.402.777zm1.17 1.006c.433.158.785.443.95.68.275.393.314.762.322 1.475v1.602h-1.946V40.02c0-.486.047-1.207-.314-1.583-.283-.29-.715-.36-1.422-.36h-2.07v2.955h-1.95v-8.088H58.4c.982 0 1.696.044 2.333.382.612.37.997.874.997 1.796 0 1.29-.864 1.95-1.374 2.152zm2.45-4.33h6.47v1.673h-4.54v1.47h4.43v1.65h-4.43v1.61l4.54.007v1.678h-6.47v-8.088zm-13.08 3.733H47.22v-2.06h2.527c.7 0 1.186.285 1.186.992 0 .698-.462 1.067-1.207 1.067zm-4.435 3.62l-2.976-3.295 2.977-3.19v6.485zm-7.686-.95h-4.765v-1.61h4.256v-1.65h-4.255v-1.47h4.86l2.12 2.357-2.214 2.373zm15.412-3.738c0 2.246-1.68 2.71-3.375 2.71h-2.42v2.712H43.45l-2.387-2.677-2.48 2.677h-7.68v-8.088H38.7l2.385 2.652 2.466-2.652h6.195c1.54 0 3.267.425 3.267 2.665z" id="EXPRESS" fill="#0072CE"/><path d="M21.655 23.624L20.328 20.4l-1.32 3.224h2.647zm29.23-1.283c-.267.162-.582.167-.96.167h-2.354V20.71h2.388c.337 0 .69.016.92.147.25.118.406.37.406.715 0 .353-.148.638-.4.77zm16.8 1.284L66.342 20.4l-1.334 3.224h2.674zm-31.317 3.49H34.38l-.006-6.333-2.81 6.333H29.86l-2.818-6.338v6.338H23.1l-.745-1.803h-4.037l-.752 1.803H15.46l3.472-8.085h2.88l3.297 7.655v-7.655h3.163l2.537 5.485 2.33-5.485h3.228v8.085zm7.92 0h-6.475v-8.086h6.476v1.683H39.75v1.46h4.428v1.656h-4.428v1.615h4.537v1.673zm9.13-5.91c0 1.29-.862 1.956-1.365 2.156.425.16.787.446.96.68.273.403.32.763.32 1.485v1.588h-1.955l-.007-1.02c0-.486.047-1.186-.305-1.575-.284-.284-.715-.346-1.413-.346h-2.08v2.94h-1.94V19.03h4.46c.99 0 1.72.026 2.347.387.612.36.98.888.98 1.79zm3.104 5.91h-1.978v-8.086h1.978v8.085zm22.947 0H76.72l-3.675-6.07v6.07H69.1l-.755-1.804h-4.027l-.732 1.803h-2.268c-.942 0-2.135-.208-2.81-.894-.682-.688-1.037-1.618-1.037-3.088 0-1.2.213-2.295 1.046-3.162.627-.645 1.608-.942 2.944-.942h1.877v1.732H61.5c-.708 0-1.107.105-1.492.48-.33.34-.557.983-.557 1.83 0 .867.173 1.49.534 1.9.298.32.84.417 1.35.417h.87l2.734-6.36h2.904l3.282 7.65v-7.65h2.952l3.407 5.632v-5.632h1.986v8.085zM15.437 28.7h3.312l.747-1.795h1.672l.744 1.796h6.517V27.33l.583 1.38h3.383l.58-1.4V28.7h16.197l-.007-2.947h.313c.218.008.282.028.282.39V28.7h8.377v-.685c.675.36 1.725.686 3.108.686h3.524l.754-1.795h1.672l.738 1.796h6.79v-1.705l1.03 1.706h5.44V17.425h-5.385v1.332l-.753-1.332H69.53v1.332l-.69-1.332h-7.466c-1.25 0-2.348.174-3.235.66v-.66h-5.152v.66c-.565-.5-1.334-.66-2.19-.66h-18.82l-1.262 2.913-1.296-2.913h-5.928v1.332l-.65-1.332h-5.057l-2.347 5.362V28.7z" id="AMERICAN" fill="#0072CE"/></g><g id="amazon-light" transform="translate(140 192)"><rect id="Rectangle" fill="#FFF" x=".559" y=".548" width="100" height="60" rx="4"/><path d="M60.958 34.67c-.532-.68-3.532-.32-4.88-.162-.41.05-.472-.306-.102-.563 2.39-1.68 6.31-1.195 6.767-.632.458.566-.12 4.494-2.364 6.368-.346.29-.674.136-.52-.246.503-1.258 1.634-4.078 1.098-4.763" id="path10" fill="#F90"/><path d="M59.22 36.658c-4.18 3.08-10.24 4.723-15.46 4.723-7.315 0-13.9-2.703-18.884-7.2-.39-.354-.04-.836.43-.56 5.377 3.126 12.026 5.007 18.894 5.007 4.632 0 9.727-.958 14.413-2.945.707-.3 1.3.463.607.976" id="path8" fill="#F90"/><path d="M80.006 32.274H77.79c-.224-.016-.402-.194-.402-.413l-.003-11.422c.02-.21.203-.372.43-.372h2.063c.194.01.354.14.397.32v1.745h.04c.624-1.56 1.498-2.305 3.036-2.305 1 0 1.974.36 2.6 1.346.583.914.583 2.45.583 3.556v7.188c-.025.2-.21.36-.43.36h-2.232c-.203-.016-.372-.166-.394-.36V25.71c0-1.247.144-3.075-1.393-3.075-.542 0-1.04.363-1.288.914-.313.697-.354 1.392-.354 2.16v6.15c-.002.23-.196.414-.434.414" id="path18" fill="#221F1F"/><path d="M70.63 19.825c3.303 0 5.092 2.835 5.092 6.44 0 3.483-1.976 6.247-5.093 6.247-3.245 0-5.012-2.836-5.012-6.37 0-3.554 1.79-6.317 5.01-6.317m.02 2.33c-1.64 0-1.744 2.236-1.744 3.628 0 1.396-.022 4.375 1.725 4.375 1.725 0 1.806-2.403 1.806-3.868 0-.964-.04-2.115-.332-3.03-.25-.794-.748-1.104-1.456-1.104" id="path16" fill="#221F1F"/><path d="M56.173 22.08V20.45c0-.248.188-.413.413-.413h7.32c.234 0 .422.17.422.413v1.398c-.003.235-.2.542-.55 1.027l-3.794 5.41c1.41-.034 2.897.176 4.175.896.287.162.365.4.387.634v1.743c0 .238-.263.517-.538.373-2.253-1.18-5.244-1.308-7.734.012-.254.138-.52-.137-.52-.375V29.91c0-.265.003-.72.27-1.122l4.394-6.297h-3.824c-.235 0-.423-.165-.423-.41" id="path12" fill="#221F1F"/><path d="M50.338 26.82c0 .866.022 1.59-.416 2.36-.354.625-.918 1.01-1.54 1.01-.856 0-1.357-.65-1.357-1.612 0-1.896 1.7-2.24 3.313-2.24v.48m2.246 5.425c-.147.13-.36.14-.526.053-.74-.614-.874-.898-1.278-1.484-1.222 1.246-2.09 1.618-3.67 1.618-1.877 0-3.333-1.154-3.333-3.467 0-1.806.977-3.036 2.374-3.637 1.21-.532 2.898-.625 4.188-.773v-.287c0-.53.04-1.155-.272-1.612-.27-.41-.79-.58-1.25-.58-.85 0-1.603.436-1.788 1.337-.038.202-.185.4-.388.408l-2.158-.232c-.182-.04-.386-.187-.332-.466.495-2.616 2.862-3.405 4.98-3.405 1.083 0 2.5.288 3.354 1.108 1.083 1.01.98 2.36.98 3.828v3.468c0 1.042.432 1.5.84 2.062.14.2.17.442-.01.592-.454.378-1.262 1.083-1.707 1.477l-.003-.007" id="path28" fill="#221F1F"/><path d="M29.474 32.274h-2.227c-.213-.016-.382-.175-.398-.38V20.477c0-.23.19-.41.428-.41h2.077c.216.01.388.175.404.382v1.492h.04c.54-1.442 1.56-2.115 2.93-2.115 1.395 0 2.265.673 2.892 2.115.538-1.442 1.763-2.115 3.075-2.115.933 0 1.954.385 2.578 1.25.704.96.56 2.355.56 3.58l-.003 7.206c0 .23-.19.414-.43.414H39.18c-.223-.016-.4-.194-.4-.413V25.81c0-.482.042-1.683-.064-2.14-.166-.767-.664-.983-1.31-.983-.538 0-1.102.36-1.33.936-.23.577-.207 1.54-.207 2.188v6.053c0 .23-.192.414-.43.414h-2.224c-.225-.016-.4-.194-.4-.413l-.004-6.052c0-1.273.21-3.148-1.37-3.148-1.602 0-1.54 1.828-1.54 3.148v6.053c0 .23-.19.414-.428.414" id="path14" fill="#221F1F"/><path d="M21.146 26.82c0 .866.022 1.59-.416 2.36-.354.625-.915 1.01-1.54 1.01-.856 0-1.354-.65-1.354-1.612 0-1.896 1.7-2.24 3.31-2.24v.48m2.246 5.425c-.147.13-.36.14-.526.053-.74-.614-.87-.898-1.278-1.484-1.22 1.246-2.086 1.618-3.67 1.618-1.873 0-3.333-1.154-3.333-3.467 0-1.806.98-3.036 2.374-3.637 1.208-.532 2.896-.625 4.186-.773v-.287c0-.53.04-1.155-.27-1.612-.27-.41-.79-.58-1.25-.58-.847 0-1.605.436-1.79 1.337-.038.202-.185.4-.385.408l-2.16-.232c-.182-.04-.382-.187-.332-.466.498-2.616 2.862-3.405 4.98-3.405 1.083 0 2.5.288 3.354 1.108 1.083 1.01.98 2.36.98 3.828v3.468c0 1.042.432 1.5.84 2.062.143.2.175.442-.007.592-.454.378-1.262 1.083-1.707 1.477l-.006-.007" id="path30" fill="#221F1F"/></g><g id="alipay-light" transform="translate(8 192)"><rect id="Rectangle" fill="#FFF" width="100" height="60" rx="4"/><path d="M70.74 18l-.896.07s-.93.21-.93.627v1.393l-4.028.14v-.767h-1.86s-1.858.14-1.858.696v5.085h7.746v3.483h-5.336v1.393h5.336v7.977l3.96-.418v-7.56h5.68V28.73h-5.68v-3.483h6.68v-.697h.17s.518 0 .828-.836l.31-2.3s-.035-1.67-1.79-1.67l-6.198.208V18H70.74zm6.128 3.204s.55-.035.585.558l-.276 2.124h-12.29v-2.3l4.027-.103v.035l3.96-.174 3.994-.14z" id="path215" fill="#003F96"/><path d="M46.673 28.728l1.273 1.497 1.48 1.324s.414.417.827 0l1.446-1.325 1.273-1.497s.448-.384 0-.87L51.7 26.393l-1.447-1.29s-.413-.417-.826 0l-1.446 1.29-1.307 1.463s-.38.487 0 .87" id="path971" fill="#EC6C00"/><path d="M79.725 33.325s.24-.313 0-.662l-.998-1.114-1.102-.977s-.31-.313-.654 0l-1.1.976-.965 1.113s-.275.35 0 .662l.964 1.115 1.1.975s.345.348.655 0l1.102-.975.998-1.115" id="path973" fill="#EC6C00"/><path d="M20.678 27.056h11.81s-.345 1.358-1.206 3.065c0 0-1.48 2.926-3.753 5.12 0 0-4.27 4.04-7.024 4.04 0 0-2.032 0-3.34-.765 0 0-1.618-1.01-1.618-3.1 0 0 0-2.752 4.166-3.553 0 0-2.686-.174-4.097 1.254 0 0-1.31 1.254-1.31 3.448 0 0 0 2.09 1.895 3.344 0 0 1.687 1.15 4.097 1.114l.55.035s4.683-.244 9.02-3.9c0 0 3.72-3.135 5.578-7.628 0 0 .586-1.395.896-2.788l.206-1.08v.035h-6.37v-3.065h8.023v-1.358H30.18v-3.17h-2.1l-.895.07s-.93.21-.93.627v2.474H18.51v1.358h7.746v3.065h-5.578v1.36" id="path979" fill="#003F96"/><path d="M47.155 18l-.07.662-.447 1.637s-.482 1.113-1.205 1.984v15.708l-3.96-.487v-12.47s-1.48.767-2.754 1.254l-.517-.836s1.342-.94 2.685-2.264c0 0 2.65-2.682 2.65-4.493 0 0 0-.418.93-.627l.896-.07h1.79" id="path981" fill="#003F96"/><path d="M46.053 24.026h7.437v14.49l3.96.068V24.026h2.065v-1.394H57.45V18h-2.136l-.895.07s-.93.21-.93.627v3.935h-7.437v1.394" id="path983" fill="#003F96"/><path d="M28.046 32.454s-5.027-2.23-8.126-2.333c0 0-2.547-.14-4.648 1.36 0 0-2.203 1.566-2.272 3.9 0 0 0 2.717 2.135 4.25 0 0 1.962 1.427 5.13 1.427h.31l-.517-.035s-2.307 0-3.925-1.15c0 0-1.79-1.288-1.79-3.412 0 0 0-2.3 1.584-3.483 0 0 1.342-.976 3.51-1.01l3.066.348 2.375.94 5.68 2.926s3.892 2.056 7.61 3.31c0 0 12.946 4.354 41.902 1.498l1.55-.314s.55-.244.997-.975c0 0 .38-.593 2.96-2.927 0 0 1.86-1.706 1.24-2.264l-.894.14s-9.47 2.158-23.895 2.75c0 0-16.216.662-24.238-1.672 0 0-5.544-1.602-9.744-3.274" id="path985" fill="#EC6C00"/></g><g id="visa-dark" transform="translate(536 100)"><rect id="Rectangle" fill="#26337A" width="100" height="60" rx="4"/><path id="Fill-3" fill="#FFF" d="M41.49 39.547l3.075-19.074h4.915l-3.075 19.074H41.49"/><path d="M64.233 20.94c-.972-.382-2.5-.8-4.404-.8-4.86 0-8.28 2.59-8.31 6.295-.03 2.742 2.442 4.27 4.305 5.182 1.915.935 2.56 1.532 2.55 2.368-.012 1.277-1.528 1.862-2.94 1.862-1.968 0-3.014-.288-4.63-1l-.632-.304-.688 4.27c1.146.53 3.27.992 5.476 1.017 5.165 0 8.52-2.558 8.56-6.516.018-2.174-1.292-3.822-4.128-5.182-1.718-.885-2.772-1.47-2.76-2.366 0-.792.89-1.64 2.816-1.64 1.607-.027 2.77.344 3.678.732l.44.218.667-4.135" id="Fill-4" fill="#FFF"/><path d="M70.777 32.784c.408-1.096 1.958-5.33 1.958-5.33-.028.05.405-1.106.653-1.82l.332 1.644s.943 4.553 1.138 5.506h-4.08zm6.064-12.292h-3.798c-1.178 0-2.06.338-2.576 1.58l-7.3 17.482h5.164s.842-2.352 1.033-2.868c.563 0 5.58.01 6.295.01.147.665.6 2.858.6 2.858h4.56L76.84 20.492z" id="Fill-5" fill="#FFF"/><path d="M37.367 20.49l-4.81 13.003-.516-2.644c-.896-3.046-3.686-6.347-6.807-8.002l4.4 16.682 5.202-.003 7.74-19.038h-5.208" id="Fill-6" fill="#FFF"/><path d="M28.09 20.476h-7.925l-.065.395c6.167 1.58 10.247 5.395 11.94 9.98l-1.72-8.765c-.3-1.21-1.162-1.567-2.23-1.61" id="Fill-7" fill="#ED982D"/></g><g id="stripe-dark" transform="translate(404 100)"><rect id="Rectangle" fill="#008CDD" width="100" height="60" rx="4"/><path d="M25.496 28.7c-1.335-.498-2.067-.885-2.067-1.494 0-.516.42-.81 1.17-.81 1.372 0 2.78.534 3.75 1.013l.548-3.412c-.768-.37-2.34-.977-4.518-.977-1.536 0-2.816.406-3.73 1.162-.952.793-1.445 1.936-1.445 3.32 0 2.507 1.518 3.577 3.987 4.48 1.59.572 2.12.978 2.12 1.605 0 .608-.51.958-1.444.958-1.152 0-3.054-.57-4.298-1.31l-.548 3.45c1.06.608 3.036 1.235 5.084 1.235 1.628 0 2.98-.387 3.896-1.125 1.024-.81 1.554-2.01 1.554-3.56 0-2.562-1.554-3.63-4.06-4.535zm12.992-2.01l.55-3.393H36.14v-4.12l-3.894.648-.563 3.472-1.37.224-.512 3.17h1.878v6.657c0 1.733.44 2.932 1.335 3.67.75.608 1.83.903 3.347.903 1.17 0 1.884-.203 2.377-.332v-3.596c-.274.074-.896.203-1.316.203-.896 0-1.28-.46-1.28-1.512V26.69h2.348zm8.7-3.59c-1.28 0-2.306.677-2.708 1.894l-.274-1.697h-3.97v14.346h4.537V28.33c.567-.7 1.37-.953 2.47-.953.237 0 .493 0 .804.055V23.21c-.31-.074-.586-.11-.86-.11zm4.242-1.223c1.317 0 2.378-1.088 2.378-2.415 0-1.346-1.06-2.416-2.378-2.416-1.335 0-2.396 1.07-2.396 2.416 0 1.327 1.06 2.415 2.396 2.415zm-2.286 1.42h4.554v14.346h-4.554V23.297zm17.46 1.29c-.806-1.05-1.92-1.566-3.348-1.566-1.317 0-2.47.554-3.548 1.715l-.238-1.438h-3.987v19.657l4.536-.756v-4.61c.694.22 1.407.332 2.047.332 1.134 0 2.78-.295 4.06-1.697 1.226-1.346 1.848-3.43 1.848-6.177 0-2.434-.458-4.278-1.372-5.458zm-3.77 8.852c-.364.7-.93 1.07-1.59 1.07-.457 0-.86-.094-1.225-.278V27.41c.767-.812 1.462-.904 1.718-.904 1.152 0 1.72 1.254 1.72 3.706 0 1.4-.202 2.49-.623 3.227zm18.144-3.1c0-2.285-.494-4.093-1.463-5.365-.988-1.29-2.47-1.954-4.353-1.954-3.86 0-6.255 2.877-6.255 7.487 0 2.582.64 4.518 1.902 5.753 1.133 1.107 2.76 1.66 4.864 1.66 1.94 0 3.73-.46 4.865-1.217l-.494-3.135c-1.116.61-2.415.94-3.878.94-.878 0-1.48-.184-1.92-.57-.476-.407-.75-1.07-.84-2.01h7.515c.02-.222.055-1.255.055-1.587zm-7.608-1.216c.128-2.047.677-3.006 1.72-3.006 1.023 0 1.554.978 1.627 3.006H73.37z" id="Fill-1" fill="#FFF"/></g><g id="square-dark" transform="translate(272 100)"><rect id="Rectangle" fill="#2996CC" width="100" height="60" rx="4"/><path d="M34.323 27.272c0 .917.262 1.62.8 2.147.503.492 1.26.844 2.384 1.11 2.76.647 3.328 1.473 3.33 2.513 0 1.387-1.294 2.515-2.885 2.515h-.01c-.825 0-1.615-.318-2.165-.874-.466-.47-.72-1.075-.72-1.702h-1.142c0 .936.377 1.83 1.057 2.52.763.77 1.844 1.21 2.97 1.21h.01c1.067 0 2.07-.372 2.826-1.05.773-.695 1.198-1.625 1.198-2.62-.005-2.337-2.132-3.15-4.212-3.64-1.946-.456-2.303-1.075-2.303-2.13 0-1.153 1.113-2.13 2.43-2.13 1.346 0 2.438.95 2.438 2.116h1.142c0-.894-.383-1.727-1.077-2.344-.672-.598-1.56-.926-2.503-.926-1.966 0-3.567 1.473-3.567 3.284" id="Fill-1" fill="#FFF"/><path d="M44.455 32.128c0-2.06 1.478-3.61 3.525-3.61 1.954 0 3.448 1.645 3.448 3.593 0 1.95-1.494 3.563-3.448 3.563-2.015 0-3.525-1.5-3.525-3.545m-1.104-.048c0 2.634 2.05 4.598 4.63 4.598 1.34 0 2.613-.59 3.354-1.74h.032V40h1.1V27.736h-1.1v1.533h-.032c-.74-1.166-2.014-1.757-3.354-1.757-2.532 0-4.63 1.948-4.63 4.567" id="Fill-2" fill="#FFF"/><path d="M64.756 32.128c0-2.06 1.48-3.61 3.526-3.61 1.952 0 3.446 1.645 3.446 3.593 0 1.95-1.494 3.563-3.446 3.563-2.016 0-3.526-1.5-3.526-3.545m-1.103-.048c0 2.634 2.047 4.598 4.63 4.598 1.338 0 2.596-.59 3.35-1.74h.034v1.533h1.1v-8.734h-1.1v1.533h-.033c-.74-1.182-1.998-1.757-3.352-1.757-2.534 0-4.63 1.948-4.63 4.567" id="Fill-3" fill="#FFF"/><path d="M76.1 28.998h-.03v-1.262H74.97v8.735h1.103v-5.11c0-1.564.945-2.538 2.456-2.666v-1.18c-1.12.08-1.953.365-2.426 1.484" id="Fill-4" fill="#FFF"/><path d="M83.46 28.52c1.73 0 3.083 1.276 3.367 2.985h-6.722c.27-1.71 1.637-2.986 3.354-2.986m-4.488 3.59c0 2.507 2 4.568 4.487 4.568 1.904 0 3.603-1.244 4.233-3.066h-1.165c-.472 1.294-1.763 2.06-3.085 2.06-1.685 0-3.26-1.437-3.338-3.162h7.84c0-.11.016-.207.016-.318 0-2.524-1.998-4.68-4.517-4.68-2.472 0-4.47 2.108-4.47 4.6" id="Fill-5" fill="#FFF"/><path d="M60.954 27.707v4.636c0 1.027-.14 1.893-.9 2.632-.54.513-1.108.705-1.835.705-1.978 0-2.627-1.33-2.627-3.144v-4.83h-1.107v4.846c0 .98.143 2.037.76 2.823.71.914 1.85 1.316 2.973 1.316 1.14 0 2.26-.496 2.767-1.572h.03v1.363h1.045v-8.773h-1.108" id="Fill-6" fill="#FFF"/><path d="M19.765 27.277c-.33 0-.597.272-.597.606v4.24c0 .333.268.606.597.606h4.182c.328 0 .597-.274.597-.607v-4.24c0-.334-.27-.606-.597-.606h-4.182zm-4.18 8.027V24.7c0-.582.47-1.058 1.044-1.058h10.453c.575 0 1.045.476 1.045 1.06v10.602c0 .583-.47 1.06-1.045 1.06H16.63c-.575 0-1.046-.477-1.046-1.06zm-.3-15.3c-1.807 0-3.285 1.5-3.285 3.334v13.33C12 38.5 13.478 40 15.286 40h13.14c1.808 0 3.286-1.5 3.286-3.333v-13.33c0-1.832-1.478-3.332-3.285-3.332h-13.14z" id="Fill-8" fill="#FFF"/></g><g id="paypal-dark" transform="translate(140 100)"><rect id="Rectangle" fill="#00457C" transform="matrix(1 0 0 -1 0 60)" width="100" height="60" rx="4"/><path d="M78.692 21.886l-2.02 12.857c-.04.25.153.474.404.474h2.032c.338 0 .624-.245.676-.578l1.993-12.627c.04-.25-.153-.474-.405-.474h-2.275c-.2 0-.374.146-.405.346zM75.912 26.094h-2.356c-.202 0-.374.147-.405.346l-.103.66-.166-.24c-.51-.74-1.647-.988-2.783-.988-2.606 0-4.83 1.974-5.264 4.742-.225 1.38.094 2.702.878 3.622.72.847 1.748 1.2 2.97 1.2 2.1 0 3.265-1.35 3.265-1.35l-.106.655c-.04.252.153.476.406.476h2.123c.335 0 .622-.244.674-.578l1.275-8.07c.038-.25-.155-.474-.408-.474zm-3.286 4.59c-.226 1.346-1.297 2.25-2.66 2.25-.684 0-1.233-.22-1.584-.635-.348-.414-.48-1.003-.37-1.658.214-1.335 1.3-2.27 2.642-2.27.67 0 1.214.223 1.573.643.36.424.503 1.016.4 1.668zM61.194 21.54H56.27c-.337 0-.623.244-.676.577l-1.99 12.626c-.04.25.152.474.403.474h2.527c.235 0 .436-.17.473-.405l.565-3.58c.052-.332.34-.577.675-.577h1.558c3.245 0 5.116-1.57 5.606-4.68.222-1.36.01-2.43-.628-3.18-.7-.82-1.94-1.256-3.588-1.256zm.568 4.61c-.268 1.768-1.618 1.768-2.924 1.768h-.743l.522-3.3c.03-.2.203-.346.405-.346h.34c.89 0 1.73 0 2.162.507.258.3.337.75.238 1.37zM53.35 26.094h-2.37c-.226 0-.44.112-.567.3l-3.268 4.814-1.385-4.626c-.088-.29-.355-.488-.657-.488h-2.33c-.28 0-.478.276-.388.543l2.61 7.66-2.454 3.463c-.192.273.003.648.336.648h2.367c.224 0 .435-.11.562-.294l7.88-11.376c.19-.272-.004-.644-.336-.644zM40.79 26.094h-2.357c-.2 0-.375.147-.405.346l-.105.66-.165-.24c-.51-.74-1.65-.988-2.785-.988-2.605 0-4.83 1.974-5.264 4.742-.227 1.38.094 2.702.877 3.622.72.847 1.747 1.2 2.97 1.2 2.1 0 3.264-1.35 3.264-1.35l-.104.655c-.04.252.153.476.404.476h2.124c.338 0 .623-.244.676-.578l1.275-8.07c.04-.25-.152-.474-.404-.474zm-3.286 4.59c-.227 1.346-1.297 2.25-2.66 2.25-.685 0-1.232-.22-1.584-.635-.348-.414-.48-1.003-.37-1.658.213-1.335 1.3-2.27 2.643-2.27.67 0 1.214.223 1.572.643.36.424.502 1.016.4 1.668zM26.072 21.54h-4.924c-.337 0-.624.244-.676.577L18.48 34.743c-.04.25.154.474.406.474h2.35c.338 0 .625-.245.677-.578l.537-3.407c.052-.333.34-.578.676-.578h1.558c3.244 0 5.116-1.57 5.605-4.68.22-1.36.008-2.43-.63-3.18-.7-.82-1.94-1.256-3.588-1.256zm.568 4.61c-.27 1.768-1.62 1.768-2.925 1.768h-.743l.522-3.3c.03-.2.203-.346.405-.346h.34c.89 0 1.728 0 2.16.507.26.3.34.75.24 1.37z" id="Shape" fill="#FFF"/></g><g id="mastercard-dark" transform="translate(8 100)"><rect id="Rectangle" fill="#006" width="100" height="60" rx="4"/><path d="M56.13 30.485C56.13 41.265 47.39 50 36.613 50 25.836 50 17.1 41.264 17.1 30.485c-.002-10.778 8.736-19.515 19.514-19.515 10.778 0 19.515 8.737 19.515 19.515" id="Fill-333" fill="#C00"/><path d="M62.814 10.97c-5.043 0-9.637 1.913-13.1 5.05-.706.64-1.364 1.332-1.97 2.067h3.942c.538.656 1.034 1.345 1.488 2.067h-6.92c-.413.664-.79 1.353-1.124 2.067h9.167c.314.67.59 1.36.827 2.067h-10.82c-.225.673-.415 1.363-.567 2.066H55.69c.286 1.332.44 2.714.44 4.132 0 2.167-.354 4.252-1.006 6.2h-10.82c.237.707.513 1.397.826 2.067h9.167c-.335.712-.71 1.402-1.125 2.067h-6.917c.45.718.948 1.41 1.488 2.063h3.942c-.606.737-1.265 1.427-1.972 2.067 3.464 3.138 8.058 5.05 13.1 5.05 10.78 0 19.516-8.736 19.516-19.515 0-10.777-8.738-19.515-19.516-19.515" id="Fill-334" fill="#F90"/><path d="M32.057 32.622c-.223-.025-.32-.033-.473-.033-1.2 0-1.808.41-1.808 1.225 0 .5.296.82.76.82.862 0 1.484-.822 1.52-2.013zm1.54 3.587h-1.755l.04-.835c-.535.66-1.25.973-2.22.973-1.148 0-1.935-.896-1.935-2.2 0-1.96 1.37-3.102 3.72-3.102.24 0 .548.022.863.062.065-.266.082-.38.082-.522 0-.533-.37-.733-1.358-.733-1.037-.01-1.892.248-2.243.363.023-.134.295-1.81.295-1.81 1.055-.31 1.752-.427 2.535-.427 1.82 0 2.784.816 2.782 2.36.003.414-.066.923-.172 1.595-.184 1.165-.578 3.666-.632 4.274z" id="Fill-336" fill="#006"/><path id="Fill-337" fill="#006" d="M26.84 36.21h-2.12l1.215-7.61-2.71 7.61H21.78l-.177-7.567-1.276 7.566h-1.983L20 26.31h3.047l.184 5.54 1.86-5.54h3.388l-1.638 9.9"/><path d="M65.432 32.622c-.223-.025-.32-.033-.472-.033-1.202 0-1.808.41-1.808 1.225 0 .5.295.82.76.82.86 0 1.484-.822 1.52-2.013zm1.542 3.587h-1.756l.04-.835c-.535.66-1.25.973-2.22.973-1.15 0-1.935-.896-1.935-2.2 0-1.96 1.37-3.102 3.72-3.102.24 0 .547.022.862.062.066-.266.083-.38.083-.522 0-.533-.37-.733-1.36-.733-1.035-.01-1.89.248-2.242.363.023-.134.296-1.81.296-1.81 1.054-.31 1.75-.427 2.534-.427 1.82 0 2.783.816 2.78 2.36.005.414-.063.923-.17 1.595-.183 1.165-.58 3.666-.632 4.274z" id="Fill-338" fill="#006"/><path d="M43.013 36.087c-.58.182-1.032.26-1.522.26-1.082 0-1.673-.62-1.673-1.768-.015-.356.156-1.292.29-2.146.123-.752.92-5.494.92-5.494h2.105l-.246 1.22h1.272l-.287 1.934h-1.275c-.245 1.53-.594 3.437-.598 3.69 0 .415.222.597.726.597.24 0 .428-.024.57-.075l-.28 1.782" id="Fill-339" fill="#006"/><path d="M49.47 36.02c-.724.223-1.42.33-2.16.328-2.358-.003-3.587-1.234-3.587-3.59 0-2.753 1.563-4.78 3.686-4.78 1.735 0 2.844 1.135 2.844 2.914 0 .59-.076 1.167-.26 1.98H45.8c-.14 1.168.606 1.654 1.832 1.654.752 0 1.433-.155 2.19-.506l-.352 2zm-1.184-4.77c.012-.17.223-1.438-.98-1.438-.67 0-1.15.51-1.345 1.437h2.326z" id="Fill-340" fill="#006"/><path d="M34.868 30.704c0 1.017.494 1.72 1.613 2.247.86.405.993.524.993.89 0 .5-.38.73-1.217.73-.633 0-1.22-.1-1.9-.32l-.29 1.86c.482.104.91.2 2.205.238 2.236 0 3.27-.85 3.27-2.69 0-1.107-.433-1.756-1.494-2.244-.888-.408-.99-.5-.99-.875 0-.436.352-.658 1.036-.658.416 0 .984.044 1.522.12l.302-1.867c-.55-.087-1.38-.156-1.865-.156-2.37 0-3.19 1.237-3.182 2.724" id="Fill-341" fill="#006"/><path d="M59.774 28.192c.588 0 1.138.152 1.893.534l.347-2.148c-.31-.122-1.403-.838-2.33-.838-1.416 0-2.616.704-3.458 1.864-1.23-.407-1.736.416-2.355 1.236l-.55.128c.042-.27.08-.537.068-.81H51.44c-.264 2.493-.735 5.016-1.103 7.51l-.097.54h2.12c.353-2.298.547-3.77.665-4.766l.798-.442c.12-.445.492-.594 1.24-.576-.097.525-.15 1.078-.15 1.65 0 2.634 1.423 4.274 3.703 4.274.587 0 1.092-.077 1.873-.29l.37-2.255c-.702.345-1.278.507-1.8.507-1.23 0-1.976-.91-1.976-2.412 0-2.18 1.108-3.706 2.69-3.706" id="Fill-342" fill="#006"/><path d="M77.71 26.31l-.47 2.86c-.578-.762-1.2-1.314-2.022-1.314-1.07 0-2.042.81-2.68 2.004-.886-.184-1.803-.497-1.803-.497v.008c.07-.667.1-1.072.093-1.21H68.88c-.263 2.49-.735 5.014-1.103 7.507l-.097.542h2.12c.286-1.86.505-3.403.666-4.626.725-.655 1.088-1.225 1.818-1.188-.324.784-.513 1.686-.513 2.612 0 2.012 1.018 3.34 2.56 3.34.775 0 1.37-.268 1.952-.888l-.1.748h2.005L79.8 26.31h-2.09zm-2.648 8.04c-.72 0-1.087-.535-1.087-1.588 0-1.582.683-2.704 1.644-2.704.727 0 1.12.554 1.12 1.577 0 1.596-.692 2.714-1.678 2.714z" id="Fill-343" fill="#006"/><path id="Fill-344" fill="#FFF" d="M27.45 35.62h-2.12l1.215-7.607-2.71 7.608H22.39l-.177-7.563-1.276 7.564h-1.983l1.656-9.896h3.047l.085 6.127 2.056-6.126h3.29l-1.64 9.897"/><path d="M32.667 32.036c-.223-.026-.32-.033-.473-.033-1.2 0-1.81.41-1.81 1.224 0 .5.298.82.76.82.864 0 1.486-.82 1.523-2.01zm1.54 3.585h-1.755l.04-.832c-.535.658-1.25.973-2.22.973-1.148 0-1.935-.896-1.935-2.198 0-1.96 1.37-3.103 3.72-3.103.24 0 .547.02.863.062.065-.267.082-.38.082-.524 0-.532-.368-.73-1.358-.73-1.037-.013-1.892.245-2.243.36.023-.133.295-1.81.295-1.81 1.055-.31 1.752-.426 2.535-.426 1.82 0 2.783.817 2.782 2.36.003.414-.065.926-.172 1.595-.184 1.165-.58 3.667-.633 4.274z" id="Fill-345" fill="#FFF"/><path d="M62.624 25.99l-.347 2.148c-.757-.38-1.305-.534-1.893-.534-1.582 0-2.69 1.53-2.69 3.71 0 1.5.745 2.41 1.976 2.41.522 0 1.098-.162 1.8-.51l-.373 2.257c-.78.213-1.285.29-1.872.29-2.28 0-3.702-1.64-3.702-4.272 0-3.54 1.964-6.012 4.772-6.012.925 0 2.018.392 2.33.514" id="Fill-346" fill="#FFF"/><path d="M66.04 32.036c-.22-.026-.318-.033-.47-.033-1.2 0-1.808.41-1.808 1.224 0 .5.296.82.758.82.863 0 1.486-.82 1.52-2.01zm1.543 3.585h-1.755l.04-.832c-.536.658-1.25.973-2.22.973-1.15 0-1.935-.896-1.935-2.198 0-1.96 1.368-3.103 3.72-3.103.24 0 .546.02.86.062.067-.267.084-.38.084-.524 0-.532-.368-.73-1.358-.73-1.037-.013-1.89.245-2.243.36l.294-1.81c1.056-.31 1.752-.426 2.536-.426 1.82 0 2.783.817 2.78 2.36.005.414-.064.926-.17 1.595-.184 1.165-.58 3.667-.633 4.274z" id="Fill-347" fill="#FFF"/><path d="M43.623 35.5c-.58.182-1.032.26-1.522.26-1.082 0-1.674-.62-1.674-1.767-.014-.357.157-1.29.292-2.146.12-.753.918-5.493.918-5.493h2.106l-.246 1.218h1.08l-.287 1.934h-1.086c-.244 1.532-.593 3.438-.597 3.69 0 .417.222.598.726.598.24 0 .428-.024.57-.077l-.28 1.782" id="Fill-348" fill="#FFF"/><path d="M50.08 35.436c-.723.22-1.422.326-2.16.325-2.36 0-3.587-1.232-3.587-3.59 0-2.752 1.563-4.778 3.684-4.778 1.738 0 2.847 1.134 2.847 2.914 0 .59-.077 1.166-.26 1.98H46.41c-.142 1.167.606 1.654 1.83 1.654.754 0 1.434-.156 2.19-.507l-.35 2.003zm-1.183-4.774c.01-.17.223-1.437-.98-1.437-.67 0-1.15.512-1.346 1.437h2.327z" id="Fill-349" fill="#FFF"/><path d="M35.478 30.117c0 1.02.494 1.72 1.614 2.248.857.403.99.523.99.888 0 .502-.378.728-1.217.728-.632 0-1.22-.097-1.898-.315l-.29 1.857c.48.106.91.202 2.203.24 2.236 0 3.27-.852 3.27-2.69 0-1.108-.433-1.757-1.495-2.244-.888-.41-.99-.5-.99-.875 0-.435.352-.66 1.037-.66.415 0 .984.047 1.522.123l.302-1.867c-.55-.088-1.38-.158-1.865-.158-2.37 0-3.19 1.237-3.182 2.725" id="Fill-350" fill="#FFF"/><path d="M78.797 35.62h-2.004l.1-.748c-.582.62-1.178.89-1.954.89-1.54 0-2.56-1.328-2.56-3.34 0-2.68 1.58-4.936 3.448-4.936.82 0 1.443.336 2.023 1.098l.47-2.86h2.09l-1.613 9.897zm-3.126-1.858c.988 0 1.68-1.118 1.68-2.713 0-1.024-.394-1.58-1.122-1.58-.96 0-1.643 1.122-1.643 2.705 0 1.054.366 1.587 1.086 1.587z" id="Fill-351" fill="#FFF"/><path d="M69.492 27.572c-.265 2.492-.737 5.015-1.105 7.508l-.097.54h2.12c.757-4.92.94-5.882 2.13-5.762.188-1.007.54-1.89.803-2.334-.887-.186-1.383.316-2.032 1.27.052-.413.146-.813.128-1.222h-1.946" id="Fill-352" fill="#FFF"/><path d="M52.052 27.572c-.266 2.492-.738 5.015-1.106 7.508l-.096.54h2.12c.758-4.92.94-5.882 2.127-5.762.19-1.007.543-1.89.805-2.334-.886-.186-1.383.316-2.03 1.27.05-.413.144-.813.126-1.222h-1.946" id="Fill-353" fill="#FFF"/></g><g id="androidpay-dark" transform="translate(404 8)"><rect id="Rectangle" fill="#1A1A1A" width="100" height="60" rx="4"/><path d="M86 24.062h-2.287l-4.965 11.914h1.014l-4.952-11.9h-2.354l5.615 13.052-.445 1.017c-.5 1.125-1.448 1.613-2.355 1.613h-.744v2.046h.717c2.016 0 3.613-1.084 4.465-3.144L86 24.062zM71.238 37.63V24.075h-2.03v1.546c-1.136-1.138-2.705-1.816-4.492-1.816-3.87 0-6.914 3.145-6.914 7.035 0 3.903 3.045 7.06 6.914 7.06 1.787 0 3.356-.69 4.493-1.816v1.546h2.028zm-6.373-1.708c-2.773 0-5.02-2.277-5.02-5.083 0-2.793 2.247-5.07 5.02-5.07 1.732 0 3.37.813 4.208 2.21.04.08.136.216.136.446v4.812c-.015.244-.096.393-.15.46-.907 1.356-2.463 2.224-4.195 2.224zM45.03 41.696v-5.612c1.136 1.14 2.706 1.83 4.492 1.83 3.856 0 6.914-3.158 6.914-7.048 0-3.904-3.058-7.062-6.914-7.062-1.786 0-3.356.692-4.492 1.817v-1.545H43v17.62h2.03zm4.343-5.76c-1.732 0-3.342-.827-4.208-2.21-.054-.08-.135-.217-.135-.447v-4.867c.013-.23.094-.38.148-.448.907-1.355 2.463-2.182 4.195-2.182 2.76 0 5.006 2.277 5.006 5.083 0 2.792-2.247 5.07-5.007 5.07z" id="Fill-5" fill="#FFF"/><path d="M18.375 25.058h-.09V37.13c0 1.008.817 1.832 1.816 1.832h1.568v4.207c0 1.01.813 1.83 1.816 1.83 1.003 0 1.817-.82 1.817-1.83V38.96h2.45v4.207c0 1.01.812 1.83 1.815 1.83 1.004 0 1.817-.82 1.817-1.83V38.96h1.527c.998 0 1.815-.824 1.815-1.83V25.057h-16.35zm3.618-4.35c0 .43.346.78.772.78.427 0 .773-.35.773-.78 0-.43-.346-.777-.773-.777-.426 0-.772.35-.772.78zm7.48 0c0 .43.345.78.77.78.428 0 .773-.35.773-.78 0-.43-.345-.777-.772-.777-.426 0-.772.35-.772.78zm-11.168 3.71c-.003-.084-.005-.168-.005-.252 0-.56.07-1.108.202-1.633.51-2.025 1.948-3.734 3.89-4.75l-1.26-2.343c-.077-.145-.024-.326.12-.404.142-.078.322-.025.4.12l1.275 2.372c1.085-.474 2.305-.74 3.593-.74 1.28 0 2.49.262 3.568.73l1.27-2.362c.078-.145.257-.198.4-.12.144.078.197.26.12.404l-1.255 2.332c2.04 1.056 3.525 2.875 3.975 5.023.05.242.09.49.112.74v.882H18.305zM39 26.567c0-1.01-.814-1.83-1.817-1.83-1.003 0-1.816.82-1.816 1.83v7.693c0 1.012.813 1.832 1.816 1.832 1.003 0 1.817-.82 1.817-1.83v-7.693zm-21.367 0v7.693c0 1.012-.813 1.832-1.816 1.832-1.003 0-1.817-.82-1.817-1.83v-7.693c0-1.012.814-1.83 1.817-1.83 1.003 0 1.816.818 1.816 1.83z" id="Fill-4" fill="#78C257"/></g><g id="applepay-dark" transform="translate(536 8)"><rect id="Rectangle" fill="#000" width="100" height="60" rx="4"/><path d="M31.886 26.958c.037 3.825 3.5 5.097 3.538 5.113-.03.092-.553 1.815-1.824 3.596-1.1 1.54-2.24 3.073-4.035 3.105-1.765.033-2.332-1.002-4.35-1.002s-2.648.97-4.32 1.035c-1.732.063-3.053-1.666-4.16-3.2-2.264-3.137-3.994-8.866-1.67-12.732 1.153-1.92 3.215-3.136 5.453-3.167 1.702-.03 3.31 1.098 4.35 1.098 1.04 0 2.994-1.357 5.047-1.157.86.034 3.27.332 4.82 2.506-.125.074-2.88 1.61-2.85 4.808m-3.316-9.39c.92-1.07 1.54-2.557 1.37-4.036-1.327.05-2.93.847-3.882 1.915-.854.945-1.6 2.458-1.4 3.91 1.48.11 2.99-.72 3.91-1.79" id="path2997" fill="#FFF"/><path d="M41.892 15.738c.682-.114 1.434-.216 2.257-.307.822-.09 1.727-.135 2.715-.135 1.41 0 2.628.164 3.65.494 1.023.33 1.863.8 2.52 1.414.566.546 1.008 1.193 1.324 1.943.316.75.474 1.615.474 2.592 0 1.18-.217 2.216-.652 3.103-.434.886-1.028 1.63-1.78 2.233-.753.602-1.646 1.05-2.68 1.347-1.036.295-2.164.443-3.387.443-1.105 0-2.033-.08-2.785-.24v9.823h-1.658V15.737zm1.658 11.458c.4.113.846.193 1.34.238.494.045 1.022.068 1.586.068 2.116 0 3.756-.478 4.92-1.432 1.164-.955 1.746-2.353 1.746-4.194 0-.887-.153-1.66-.458-2.32-.306-.66-.74-1.2-1.305-1.62-.565-.42-1.235-.738-2.01-.955-.778-.215-1.636-.323-2.577-.323-.752 0-1.4.03-1.94.086-.54.057-.975.12-1.304.187v10.266z" id="path2995" fill="#FFF"/><path d="M68.02 34.562c0 .66.01 1.32.034 1.978.024.66.094 1.295.212 1.91h-1.552l-.246-2.32h-.072c-.21.32-.482.637-.81.955-.33.318-.712.608-1.146.87-.435.26-.93.47-1.482.63-.552.158-1.157.24-1.816.24-.822 0-1.546-.133-2.17-.393-.623-.262-1.134-.603-1.534-1.023-.4-.422-.7-.905-.898-1.45-.2-.546-.3-1.09-.3-1.637 0-1.933.84-3.42 2.52-4.468 1.683-1.046 4.216-1.545 7.603-1.5v-.444c0-.43-.042-.926-.124-1.483-.084-.557-.265-1.086-.548-1.585-.282-.5-.705-.92-1.27-1.26-.563-.342-1.328-.513-2.292-.513-.73 0-1.45.107-2.17.323-.716.216-1.368.517-1.955.904l-.53-1.194c.752-.5 1.53-.858 2.327-1.073.8-.216 1.635-.324 2.505-.324 1.175 0 2.134.193 2.874.58.742.386 1.324.886 1.747 1.5.423.613.712 1.3.864 2.063.153.76.23 1.517.23 2.266v6.446zm-1.658-4.877c-.894-.023-1.83.01-2.805.102-.975.09-1.875.29-2.697.597-.824.307-1.505.756-2.045 1.347-.54.593-.812 1.376-.812 2.354 0 1.16.34 2.012 1.023 2.557.682.547 1.445.82 2.292.82.682 0 1.293-.09 1.834-.273.54-.183 1.01-.427 1.41-.733.4-.306.735-.653 1.006-1.04.27-.387.476-.784.618-1.194.117-.455.177-.785.177-.99v-3.545z" id="path2998" fill="#FFF"/><path d="M71.262 22.08l4.3 10.64c.237.59.46 1.2.672 1.824.212.625.4 1.2.564 1.722h.07c.166-.5.353-1.063.565-1.688.212-.625.447-1.267.705-1.928l4.022-10.57h1.762l-4.9 12.004c-.495 1.272-.96 2.427-1.394 3.46-.435 1.035-.876 1.967-1.323 2.797-.447.83-.9 1.563-1.36 2.2-.456.637-.97 1.194-1.532 1.67-.658.57-1.264.985-1.817 1.246-.552.262-.922.427-1.11.495l-.566-1.33c.424-.18.894-.42 1.41-.715.52-.296 1.025-.682 1.518-1.16.424-.41.888-.948 1.393-1.62.507-.67.96-1.483 1.36-2.438.14-.364.21-.603.21-.716 0-.158-.07-.397-.21-.715L69.496 22.08h1.765z" id="path3000" fill="#FFF"/></g><g id="amex-dark" transform="translate(272 8)"><rect id="Rectangle" fill="#0072CE" width="100" height="60" rx="4"/><path d="M84.407 34.666h-3.533c-.352 0-.587.013-.784.146-.205.13-.283.325-.283.582 0 .305.172.512.423.602.205.07.425.092.748.092l1.05.028c1.06.026 1.768.208 2.2.65.078.062.125.132.18.2v-2.3zm0 5.332c-.47.686-1.388 1.034-2.63 1.034h-3.744v-1.734h3.73c.368 0 .627-.05.783-.2.135-.125.23-.307.23-.528 0-.235-.095-.422-.238-.535-.14-.123-.345-.18-.683-.18-1.82-.06-4.09.057-4.09-2.502 0-1.173.747-2.408 2.78-2.408h3.862v-1.61H80.82c-1.083 0-1.87.26-2.427.66v-.66h-5.306c-.85 0-1.845.21-2.316.66v-.66h-9.475v.66c-.754-.54-2.027-.66-2.614-.66h-6.25v.66c-.596-.575-1.923-.66-2.732-.66h-6.995l-1.6 1.728-1.5-1.727h-10.45V42.62h10.253l1.65-1.754 1.553 1.755 6.32.006v-2.654h.62c.84.012 1.828-.02 2.7-.397v3.045h5.214v-2.94h.25c.322 0 .354.012.354.332v2.608h15.835c1.006 0 2.057-.256 2.64-.722v.722h5.022c1.045 0 2.066-.146 2.842-.52v-2.102zm-7.732-3.23c.377.388.58.88.58 1.712 0 1.74-1.09 2.552-3.046 2.552h-3.777v-1.734h3.76c.37 0 .63-.05.793-.2.133-.125.23-.307.23-.528 0-.235-.105-.422-.238-.535-.148-.123-.352-.18-.69-.18-1.813-.06-4.083.057-4.083-2.502 0-1.173.74-2.408 2.77-2.408h3.888v1.72h-3.556c-.353 0-.582.014-.777.147-.212.13-.29.325-.29.582 0 .305.18.513.423.602.204.07.424.092.754.092l1.044.028c1.053.026 1.776.207 2.215.65zm-17.493-.5c-.26.153-.58.166-.957.166H55.87v-1.817h2.387c.345 0 .69.008.925.146.252.13.402.382.402.728 0 .347-.15.626-.402.777zm1.17 1.006c.433.158.785.443.95.68.275.393.314.762.322 1.475v1.602h-1.946V40.02c0-.486.047-1.207-.314-1.583-.283-.29-.715-.36-1.422-.36h-2.07v2.955h-1.95v-8.088H58.4c.982 0 1.696.044 2.333.382.612.37.997.874.997 1.796 0 1.29-.864 1.95-1.374 2.152zm2.45-4.33h6.47v1.673h-4.54v1.47h4.43v1.65h-4.43v1.61l4.54.007v1.678h-6.47v-8.088zm-13.08 3.733H47.22v-2.06h2.527c.7 0 1.186.285 1.186.992 0 .698-.462 1.067-1.207 1.067zm-4.435 3.62l-2.976-3.295 2.977-3.19v6.485zm-7.686-.95h-4.765v-1.61h4.256v-1.65h-4.255v-1.47h4.86l2.12 2.357-2.214 2.373zm15.412-3.738c0 2.246-1.68 2.71-3.375 2.71h-2.42v2.712H43.45l-2.387-2.677-2.48 2.677h-7.68v-8.088H38.7l2.385 2.652 2.466-2.652h6.195c1.54 0 3.267.425 3.267 2.665z" id="EXPRESS" fill="#FFF"/><path d="M21.655 23.624L20.328 20.4l-1.32 3.224h2.647zm29.23-1.283c-.267.162-.582.167-.96.167h-2.354V20.71h2.388c.337 0 .69.016.92.147.25.118.406.37.406.715 0 .353-.148.638-.4.77zm16.8 1.284L66.342 20.4l-1.334 3.224h2.674zm-31.317 3.49H34.38l-.006-6.333-2.81 6.333H29.86l-2.818-6.338v6.338H23.1l-.745-1.803h-4.037l-.752 1.803H15.46l3.472-8.085h2.88l3.297 7.655v-7.655h3.163l2.537 5.485 2.33-5.485h3.228v8.085zm7.92 0h-6.475v-8.086h6.476v1.683H39.75v1.46h4.428v1.656h-4.428v1.615h4.537v1.673zm9.13-5.91c0 1.29-.862 1.956-1.365 2.156.425.16.787.446.96.68.273.403.32.763.32 1.485v1.588h-1.955l-.007-1.02c0-.486.047-1.186-.305-1.575-.284-.284-.715-.346-1.413-.346h-2.08v2.94h-1.94V19.03h4.46c.99 0 1.72.026 2.347.387.612.36.98.888.98 1.79zm3.104 5.91h-1.978v-8.086h1.978v8.085zm22.947 0H76.72l-3.675-6.07v6.07H69.1l-.755-1.804h-4.027l-.732 1.803h-2.268c-.942 0-2.135-.208-2.81-.894-.682-.688-1.037-1.618-1.037-3.088 0-1.2.213-2.295 1.046-3.162.627-.645 1.608-.942 2.944-.942h1.877v1.732H61.5c-.708 0-1.107.105-1.492.48-.33.34-.557.983-.557 1.83 0 .867.173 1.49.534 1.9.298.32.84.417 1.35.417h.87l2.734-6.36h2.904l3.282 7.65v-7.65h2.952l3.407 5.632v-5.632h1.986v8.085zM15.437 28.7h3.312l.747-1.795h1.672l.744 1.796h6.517V27.33l.583 1.38h3.383l.58-1.4V28.7h16.197l-.007-2.947h.313c.218.008.282.028.282.39V28.7h8.377v-.685c.675.36 1.725.686 3.108.686h3.524l.754-1.795h1.672l.738 1.796h6.79v-1.705l1.03 1.706h5.44V17.425h-5.385v1.332l-.753-1.332H69.53v1.332l-.69-1.332h-7.466c-1.25 0-2.348.174-3.235.66v-.66h-5.152v.66c-.565-.5-1.334-.66-2.19-.66h-18.82l-1.262 2.913-1.296-2.913h-5.928v1.332l-.65-1.332h-5.057l-2.347 5.362V28.7z" id="AMERICAN" fill="#FFF"/></g><g id="amazon-dark" transform="translate(140 8)"><rect id="Rectangle" fill="#000" width="100" height="60" rx="4"/><path d="M61.042 34.705c-.533-.682-3.533-.322-4.88-.163-.41.05-.473-.306-.103-.563 2.388-1.68 6.31-1.196 6.767-.633.457.566-.12 4.494-2.365 6.368-.344.288-.673.135-.52-.247.505-1.258 1.635-4.077 1.1-4.763" id="path10" fill="#F90"/><path d="M59.303 36.692c-4.18 3.08-10.24 4.723-15.458 4.723-7.316 0-13.903-2.704-18.885-7.2-.392-.355-.04-.837.43-.56 5.376 3.125 12.025 5.006 18.893 5.006 4.632 0 9.728-.957 14.413-2.944.708-.3 1.3.463.607.976" id="path8" fill="#F90"/><path d="M80.09 32.308H77.87c-.222-.016-.4-.194-.4-.413l-.004-11.423c.02-.21.204-.372.43-.372h2.063c.195.01.355.14.4.32v1.745h.04c.623-1.56 1.497-2.306 3.034-2.306 1 0 1.973.36 2.6 1.345.582.913.582 2.45.582 3.555v7.188c-.025.2-.21.36-.43.36h-2.232c-.203-.016-.373-.166-.394-.36v-6.203c0-1.248.144-3.076-1.394-3.076-.542 0-1.04.362-1.287.913-.314.698-.355 1.393-.355 2.162v6.15c-.003.228-.198.413-.436.413" id="path18" fill="#FFF"/><path d="M70.713 19.86c3.304 0 5.092 2.834 5.092 6.44 0 3.482-1.976 6.246-5.092 6.246-3.245 0-5.01-2.836-5.01-6.37 0-3.554 1.787-6.317 5.01-6.317m.02 2.33c-1.643 0-1.746 2.235-1.746 3.627 0 1.396-.022 4.375 1.726 4.375 1.725 0 1.807-2.403 1.807-3.868 0-.963-.04-2.115-.332-3.03-.25-.794-.75-1.104-1.456-1.104" id="path16" fill="#FFF"/><path d="M56.256 22.115v-1.633c0-.248.188-.413.414-.413h7.32c.234 0 .42.168.42.412v1.4c-.002.233-.2.54-.55 1.025l-3.792 5.41c1.41-.034 2.897.176 4.174.896.288.163.367.4.39.635v1.743c0 .24-.264.518-.54.374-2.252-1.18-5.243-1.308-7.732.012-.254.138-.52-.137-.52-.375v-1.655c0-.266.003-.72.27-1.123l4.393-6.297H56.68c-.236 0-.424-.166-.424-.41" id="path12" fill="#FFF"/><path d="M50.422 26.853c0 .867.02 1.59-.417 2.36-.354.626-.918 1.01-1.54 1.01-.856 0-1.357-.65-1.357-1.61 0-1.897 1.7-2.242 3.314-2.242v.483m2.245 5.424c-.147.13-.36.14-.526.053-.738-.614-.873-.898-1.277-1.484-1.22 1.246-2.09 1.618-3.67 1.618-1.876 0-3.333-1.154-3.333-3.467 0-1.806.977-3.036 2.374-3.636 1.21-.532 2.897-.625 4.188-.772V24.3c0-.53.04-1.155-.273-1.612-.27-.41-.79-.58-1.25-.58-.85 0-1.604.436-1.79 1.337-.036.2-.184.398-.387.407l-2.158-.23c-.182-.042-.385-.19-.332-.468.495-2.616 2.863-3.405 4.98-3.405 1.083 0 2.5.287 3.354 1.107 1.083 1.01.98 2.36.98 3.828v3.467c0 1.042.432 1.5.84 2.062.14.2.172.442-.01.592-.454.378-1.262 1.083-1.707 1.477l-.003-.006" id="path28" fill="#FFF"/><path d="M29.557 32.308H27.33c-.212-.016-.382-.175-.397-.38V20.51c0-.23.19-.41.43-.41h2.075c.216.01.39.175.404.382v1.492h.04c.543-1.442 1.56-2.115 2.932-2.115 1.394 0 2.265.672 2.89 2.114.54-1.442 1.764-2.115 3.077-2.115.934 0 1.955.384 2.578 1.248.705.96.56 2.356.56 3.58l-.003 7.207c0 .228-.19.413-.43.413h-2.222c-.223-.016-.4-.194-.4-.413v-6.053c0-.48.043-1.683-.064-2.14-.167-.767-.665-.983-1.31-.983-.538 0-1.102.36-1.33.935-.23.576-.208 1.54-.208 2.187v6.053c0 .228-.19.413-.43.413H33.3c-.226-.016-.4-.194-.4-.413l-.004-6.053c0-1.273.21-3.148-1.372-3.148-1.6 0-1.538 1.828-1.538 3.148v6.053c0 .228-.19.413-.43.413" id="path14" fill="#FFF"/><path d="M21.23 26.853c0 .867.022 1.59-.417 2.36-.354.626-.914 1.01-1.54 1.01-.856 0-1.354-.65-1.354-1.61 0-1.897 1.7-2.242 3.31-2.242v.483m2.245 5.424c-.147.13-.36.14-.526.053-.74-.614-.872-.898-1.28-1.484-1.22 1.246-2.085 1.618-3.67 1.618-1.872 0-3.332-1.154-3.332-3.467 0-1.806.98-3.036 2.374-3.636 1.21-.532 2.897-.625 4.188-.772V24.3c0-.53.04-1.155-.27-1.612-.272-.41-.792-.58-1.25-.58-.848 0-1.606.436-1.79 1.337-.038.2-.185.398-.386.407l-2.16-.23c-.183-.042-.383-.19-.333-.468.5-2.616 2.864-3.405 4.98-3.405 1.084 0 2.5.287 3.355 1.107 1.084 1.01.98 2.36.98 3.828v3.467c0 1.042.432 1.5.84 2.062.144.2.175.442-.007.592-.454.378-1.262 1.083-1.707 1.477l-.005-.006" id="path30" fill="#FFF"/></g><g id="alipay-dark" transform="translate(8 8)"><rect id="Rectangle" fill="#003F96" width="100" height="60" rx="4"/><path d="M70.74 18l-.896.07s-.93.21-.93.627v1.393l-4.028.14v-.767h-1.86s-1.858.14-1.858.696v5.085h7.746v3.483h-5.336v1.393h5.336v7.977l3.96-.418v-7.56h5.68V28.73h-5.68v-3.483h6.68v-.697h.17s.518 0 .828-.836l.31-2.3s-.035-1.67-1.79-1.67l-6.198.208V18H70.74zm6.128 3.204s.55-.035.585.558l-.276 2.124h-12.29v-2.3l4.027-.103v.035l3.96-.174 3.994-.14z" id="path215" fill="#FFF"/><path d="M46.673 28.728l1.273 1.497 1.48 1.324s.414.417.827 0l1.446-1.325 1.273-1.497s.448-.384 0-.87L51.7 26.393l-1.447-1.29s-.413-.417-.826 0l-1.446 1.29-1.307 1.463s-.38.487 0 .87" id="path971" fill="#EC6C00"/><path d="M79.725 33.325s.24-.313 0-.662l-.998-1.114-1.102-.977s-.31-.313-.654 0l-1.1.976-.965 1.113s-.275.35 0 .662l.964 1.115 1.1.975s.345.348.655 0l1.102-.975.998-1.115" id="path973" fill="#EC6C00"/><path d="M20.678 27.056h11.81s-.345 1.358-1.206 3.065c0 0-1.48 2.926-3.753 5.12 0 0-4.27 4.04-7.024 4.04 0 0-2.032 0-3.34-.765 0 0-1.618-1.01-1.618-3.1 0 0 0-2.752 4.166-3.553 0 0-2.686-.174-4.097 1.254 0 0-1.31 1.254-1.31 3.448 0 0 0 2.09 1.895 3.344 0 0 1.687 1.15 4.097 1.114l.55.035s4.683-.244 9.02-3.9c0 0 3.72-3.135 5.578-7.628 0 0 .586-1.395.896-2.788l.206-1.08v.035h-6.37v-3.065h8.023v-1.358H30.18v-3.17h-2.1l-.895.07s-.93.21-.93.627v2.474H18.51v1.358h7.746v3.065h-5.578v1.36" id="path979" fill="#FFF"/><path d="M47.155 18l-.07.662-.447 1.637s-.482 1.113-1.205 1.984v15.708l-3.96-.487v-12.47s-1.48.767-2.754 1.254l-.517-.836s1.342-.94 2.685-2.264c0 0 2.65-2.682 2.65-4.493 0 0 0-.418.93-.627l.896-.07h1.79" id="path981" fill="#FFF"/><path d="M46.053 24.026h7.437v14.49l3.96.068V24.026h2.065v-1.394H57.45V18h-2.136l-.895.07s-.93.21-.93.627v3.935h-7.437v1.394" id="path983" fill="#FFF"/><path d="M28.046 32.454s-5.027-2.23-8.126-2.333c0 0-2.547-.14-4.648 1.36 0 0-2.203 1.566-2.272 3.9 0 0 0 2.717 2.135 4.25 0 0 1.962 1.427 5.13 1.427h.31l-.517-.035s-2.307 0-3.925-1.15c0 0-1.79-1.288-1.79-3.412 0 0 0-2.3 1.584-3.483 0 0 1.342-.976 3.51-1.01l3.066.348 2.375.94 5.68 2.926s3.892 2.056 7.61 3.31c0 0 12.946 4.354 41.902 1.498l1.55-.314s.55-.244.997-.975c0 0 .38-.593 2.96-2.927 0 0 1.86-1.706 1.24-2.264l-.894.14s-9.47 2.158-23.895 2.75c0 0-16.216.662-24.238-1.672 0 0-5.544-1.602-9.744-3.274" id="path985" fill="#EC6C00"/></g></g></svg>